<svg width="32" height="32" viewBox="0 0 32 32" fill="none" xmlns="http://www.w3.org/2000/svg">
<g clip-path="url(#clip0_283_2860)">
<path d="M15.9987 4C14.532 4 13.332 5.2 13.332 6.66667C13.332 8.13333 14.532 9.33333 15.9987 9.33333C17.4654 9.33333 18.6654 8.13333 18.6654 6.66667C18.6654 5.2 17.4654 4 15.9987 4ZM15.9987 22.6667C14.532 22.6667 13.332 23.8667 13.332 25.3333C13.332 26.8 14.532 28 15.9987 28C17.4654 28 18.6654 26.8 18.6654 25.3333C18.6654 23.8667 17.4654 22.6667 15.9987 22.6667ZM15.9987 13.3333C14.532 13.3333 13.332 14.5333 13.332 16C13.332 17.4667 14.532 18.6667 15.9987 18.6667C17.4654 18.6667 18.6654 17.4667 18.6654 16C18.6654 14.5333 17.4654 13.3333 15.9987 13.3333Z" fill="#002046"/>
</g>
<defs>
<clipPath id="clip0_283_2860">
<rect width="32" height="32" fill="white"/>
</clipPath>
</defs>
</svg>
