<svg width="24" height="25" viewBox="0 0 24 25" fill="none" xmlns="http://www.w3.org/2000/svg">
<path d="M11.8808 6.86035C11.6175 6.8612 11.3635 6.95789 11.1663 7.13235C10.9691 7.30681 10.8421 7.54712 10.8092 7.80835L10.8008 7.94035V12.6204C10.8008 12.7068 10.8104 12.7896 10.8284 12.87C10.8366 13.0846 10.9089 13.2919 11.036 13.4652L11.144 13.5912L13.8596 16.3068C14.0529 16.5009 14.3129 16.6143 14.5867 16.624C14.8606 16.6337 15.1279 16.5389 15.3344 16.3589C15.541 16.1789 15.6714 15.927 15.6993 15.6544C15.7271 15.3818 15.6503 15.1088 15.4844 14.8908L15.3872 14.7792L12.9608 12.3528V7.94035C12.9608 7.65392 12.847 7.37922 12.6445 7.17668C12.4419 6.97414 12.1672 6.86035 11.8808 6.86035Z" fill="#747474"/>
<path d="M21.6023 12.5004C21.6023 15.0465 20.5909 17.4883 18.7906 19.2886C16.9902 21.089 14.5484 22.1004 12.0023 22.1004C9.45627 22.1004 7.01447 21.089 5.21412 19.2886C3.41377 17.4883 2.40234 15.0465 2.40234 12.5004C2.40234 9.95431 3.41377 7.51252 5.21412 5.71217C7.01447 3.91182 9.45627 2.90039 12.0023 2.90039C14.5484 2.90039 16.9902 3.91182 18.7906 5.71217C20.5909 7.51252 21.6023 9.95431 21.6023 12.5004ZM19.2023 12.5004C19.2023 10.5908 18.4438 8.75948 17.0935 7.40922C15.7433 6.05896 13.9119 5.30039 12.0023 5.30039C10.0928 5.30039 8.26144 6.05896 6.91118 7.40922C5.56091 8.75948 4.80234 10.5908 4.80234 12.5004C4.80234 14.41 5.56091 16.2413 6.91118 17.5916C8.26144 18.9418 10.0928 19.7004 12.0023 19.7004C13.9119 19.7004 15.7433 18.9418 17.0935 17.5916C18.4438 16.2413 19.2023 14.41 19.2023 12.5004Z" fill="#747474"/>
</svg>
