<svg width="86" height="24" viewBox="0 0 86 24" fill="none" xmlns="http://www.w3.org/2000/svg">
<path d="M5.91406 7.01562C5.91406 8.79688 7.07031 10.4688 9.24219 11.1562L8.30469 12.5156C6.78125 12 5.6875 10.9688 5.08594 9.65625C4.46094 11.1562 3.32031 12.3359 1.69531 12.9062L0.757812 11.5469C3.03906 10.75 4.16406 8.875 4.17969 6.85938V5.51562H5.91406V7.01562ZM12.0547 4.76562V8.20312H14.0234V9.64062H12.0547V13.2188H10.3203V4.76562H12.0547ZM7.46094 13.5312C10.3828 13.5156 12.1797 14.5156 12.1953 16.1875C12.1797 17.8906 10.3828 18.875 7.46094 18.875C4.50781 18.875 2.67969 17.8906 2.67969 16.1875C2.67969 14.5156 4.50781 13.5156 7.46094 13.5312ZM7.46094 14.8906C5.52344 14.8906 4.41406 15.3594 4.41406 16.1875C4.41406 17.0625 5.52344 17.5 7.46094 17.5C9.39844 17.5 10.4766 17.0625 10.4766 16.1875C10.4766 15.3594 9.39844 14.8906 7.46094 14.8906ZM19.1484 8.46875C19.1484 10.75 19.9453 13.125 21.8516 14.3281L20.8984 15.6562C19.625 14.8906 18.7969 13.5703 18.3359 12.0156C17.8203 13.7266 16.9141 15.1719 15.5859 15.9844L14.5078 14.6875C16.5547 13.4375 17.4766 10.9531 17.4766 8.54688V6.01562H19.1484V8.46875ZM26.9297 4.76562V18.8906H25.2578V4.76562H26.9297ZM23.9922 5.01562V18.2031H22.3516V11.0625H20.3359V9.625H22.3516V5.01562H23.9922ZM44.1953 4.76562V13.1562H42.4609V9.70312H40.0547V8.28125H42.4609V4.76562H44.1953ZM39.4141 13.5156C42.4141 13.5156 44.2422 14.5 44.2422 16.2031C44.2422 17.9062 42.4141 18.8906 39.4141 18.8906C36.4297 18.8906 34.6016 17.9062 34.6172 16.2031C34.6016 14.5 36.4297 13.5156 39.4141 13.5156ZM39.4141 14.8438C37.4453 14.8438 36.3359 15.3125 36.3359 16.2031C36.3359 17.0781 37.4453 17.5469 39.4141 17.5469C41.3828 17.5469 42.5078 17.0781 42.5078 16.2031C42.5078 15.3125 41.3828 14.8438 39.4141 14.8438ZM37.5547 7.1875C37.5547 8.90625 38.6953 10.6406 40.8828 11.375L40.0078 12.75C38.4375 12.2188 37.3203 11.1406 36.7109 9.8125C36.0859 11.3203 34.9062 12.5234 33.2266 13.125L32.3203 11.75C34.5859 10.9688 35.7891 9.0625 35.7891 7.20312V7.09375H32.8516V5.6875H40.4766V7.09375H37.5547V7.1875ZM59.1016 15.7656V17.1875H46.1953V15.7656H51.7578V13.0156H47.6172V5.70312H49.3516V8.01562H55.8984V5.70312H57.6328V13.0156H53.4766V15.7656H59.1016ZM49.3516 11.6094H55.8984V9.40625H49.3516V11.6094Z" fill="#0085FF"/>
<path d="M70.4176 17.5136L76.4224 12.0008L70.3984 6.47118L72.0808 4.80078C75.46 7.85478 77.4628 9.69198 78.0892 10.3136C78.3123 10.5343 78.4894 10.7971 78.6102 11.0867C78.7311 11.3763 78.7933 11.687 78.7933 12.0008C78.7933 12.3146 78.7311 12.6253 78.6102 12.9149C78.4894 13.2045 78.3123 13.4673 78.0892 13.688L72.1048 19.2008L70.4176 17.5136Z" fill="#0085FF"/>
</svg>
