<svg width="32" height="32" viewBox="0 0 32 32" fill="none" xmlns="http://www.w3.org/2000/svg">
<path fill-rule="evenodd" clip-rule="evenodd" d="M30.6654 15.9997C30.6654 24.0998 24.0989 30.6663 15.9987 30.6663C7.89852 30.6663 1.33203 24.0998 1.33203 15.9997C1.33203 7.8995 7.89852 1.33301 15.9987 1.33301C24.0989 1.33301 30.6654 7.8995 30.6654 15.9997ZM15.9987 27.9997C22.6261 27.9997 27.9987 22.6271 27.9987 15.9997C27.9987 9.37226 22.6261 3.99967 15.9987 3.99967C9.37128 3.99967 3.9987 9.37226 3.9987 15.9997C3.9987 22.6271 9.37128 27.9997 15.9987 27.9997Z" fill="#0085FF"/>
<path fill-rule="evenodd" clip-rule="evenodd" d="M9.50123 20.1353C9.9833 19.5786 10.8254 19.5182 11.382 20.0003C11.8501 20.4056 12.5233 20.7423 13.3341 20.9763C14.1449 21.2104 15.0646 21.3336 16.0008 21.3336C16.937 21.3336 17.8567 21.2104 18.6675 20.9763C19.4783 20.7423 20.1516 20.4056 20.6196 20.0003C21.1763 19.5182 22.0183 19.5786 22.5004 20.1353C22.9825 20.6919 22.922 21.534 22.3654 22.0161C21.5196 22.7485 20.4617 23.2339 19.4071 23.5384C18.3312 23.8489 17.1602 24.0003 16.0008 24.0003C14.8414 24.0003 13.6704 23.8489 12.5945 23.5384C11.5399 23.2339 10.482 22.7485 9.63626 22.0161C9.07961 21.534 9.01916 20.6919 9.50123 20.1353Z" fill="#0085FF"/>
<path d="M13.3346 13.3333C13.3346 14.0697 12.7377 14.6667 12.0013 14.6667C11.2649 14.6667 10.668 14.0697 10.668 13.3333C10.668 12.597 11.2649 12 12.0013 12C12.7377 12 13.3346 12.597 13.3346 13.3333Z" fill="#0085FF"/>
<path fill-rule="evenodd" clip-rule="evenodd" d="M14 13.333C14 14.4376 13.1046 15.333 12 15.333C10.8954 15.333 10 14.4376 10 13.333C10 12.2284 10.8954 11.333 12 11.333C13.1046 11.333 14 12.2284 14 13.333ZM12 14.6663C12.7364 14.6663 13.3333 14.0694 13.3333 13.333C13.3333 12.5966 12.7364 11.9997 12 11.9997C11.2636 11.9997 10.6667 12.5966 10.6667 13.333C10.6667 14.0694 11.2636 14.6663 12 14.6663Z" fill="#0085FF"/>
<path d="M21.3346 13.3333C21.3346 14.0697 20.7377 14.6667 20.0013 14.6667C19.2649 14.6667 18.668 14.0697 18.668 13.3333C18.668 12.597 19.2649 12 20.0013 12C20.7377 12 21.3346 12.597 21.3346 13.3333Z" fill="#0085FF"/>
<path fill-rule="evenodd" clip-rule="evenodd" d="M22 13.333C22 14.4376 21.1046 15.333 20 15.333C18.8954 15.333 18 14.4376 18 13.333C18 12.2284 18.8954 11.333 20 11.333C21.1046 11.333 22 12.2284 22 13.333ZM20 14.6663C20.7364 14.6663 21.3333 14.0694 21.3333 13.333C21.3333 12.5966 20.7364 11.9997 20 11.9997C19.2636 11.9997 18.6667 12.5966 18.6667 13.333C18.6667 14.0694 19.2636 14.6663 20 14.6663Z" fill="#0085FF"/>
</svg>
