<svg width="32" height="32" viewBox="0 0 32 32" fill="none" xmlns="http://www.w3.org/2000/svg">
<rect width="32" height="32" rx="16" fill="#F5F5F5"/>
<path fill-rule="evenodd" clip-rule="evenodd" d="M14.4372 7.13673C15.6011 6.9315 16.7941 6.95753 17.948 7.21334C19.1018 7.46914 20.194 7.94972 21.1622 8.62763C22.1303 9.30554 22.9555 10.1675 23.5905 11.1643C24.2256 12.1611 24.658 13.2732 24.8633 14.4372C25.0685 15.6011 25.0425 16.7941 24.7867 17.948C24.5309 19.1018 24.0503 20.194 23.3724 21.1622C22.6945 22.1303 21.8325 22.9555 20.8357 23.5905C19.8389 24.2256 18.7268 24.658 17.5628 24.8633C16.3989 25.0685 15.2059 25.0425 14.052 24.7867C12.8982 24.5309 11.806 24.0503 10.8378 23.3724C9.86966 22.6945 9.04451 21.8325 8.40948 20.8357C7.77444 19.8389 7.34196 18.7268 7.13673 17.5628C6.9315 16.3989 6.95753 15.2059 7.21334 14.052C7.46914 12.8982 7.94972 11.806 8.62763 10.8378C9.30554 9.86966 10.1675 9.04451 11.1643 8.40948C12.1611 7.77445 13.2732 7.34196 14.4372 7.13673ZM18.3808 5.26074C16.9705 4.94809 15.5125 4.91627 14.0899 5.16712C12.6673 5.41796 11.308 5.94654 10.0897 6.7227C8.87139 7.49885 7.81788 8.50736 6.98933 9.69066C6.16077 10.874 5.5734 12.2089 5.26074 13.6192C4.94809 15.0295 4.91627 16.4875 5.16711 17.9101C5.41796 19.3327 5.94654 20.692 6.7227 21.9103C7.49885 23.1286 8.50736 24.1821 9.69066 25.0107C10.874 25.8392 12.2089 26.4266 13.6192 26.7393C15.0295 27.0519 16.4875 27.0837 17.9101 26.8329C19.3327 26.582 20.692 26.0535 21.9103 25.2773C23.1286 24.5012 24.1821 23.4926 25.0107 22.3093C25.8392 21.126 26.4266 19.7911 26.7393 18.3808C27.0519 16.9705 27.0837 15.5125 26.8329 14.0899C26.582 12.6673 26.0535 11.308 25.2773 10.0897C24.5012 8.87139 23.4926 7.81788 22.3093 6.98933C21.126 6.16077 19.7911 5.5734 18.3808 5.26074Z" fill="#1D1D1D"/>
<path fill-rule="evenodd" clip-rule="evenodd" d="M17 15L17 23L15 23L15 15L17 15Z" fill="#1D1D1D"/>
<path fill-rule="evenodd" clip-rule="evenodd" d="M15 12L15 9L17 9L17 12L15 12Z" fill="#1D1D1D"/>
</svg>
