<svg width="118" height="46" viewBox="0 0 118 46" fill="none" xmlns="http://www.w3.org/2000/svg">
<g clip-path="url(#clip0_281_2587)">
<path d="M112.154 0.5H5.53846C2.47965 0.5 0 2.97965 0 6.03846V39.9615C0 43.0203 2.47965 45.5 5.53846 45.5H112.154C115.213 45.5 117.692 43.0203 117.692 39.9615V6.03846C117.692 2.97965 115.213 0.5 112.154 0.5Z" fill="#0085FF"/>
<path d="M80.1285 38.0283C79.4465 38.0283 78.8865 37.9552 78.4482 37.8092C78.01 37.6631 77.6694 37.4683 77.4257 37.2249C77.1827 37.0057 77.0117 36.7379 76.9148 36.4214C76.8414 36.1292 76.8047 35.8371 76.8047 35.5449C76.8047 35.1796 76.8414 34.8388 76.9148 34.5223C77.0117 34.2301 77.1827 33.9623 77.4257 33.7189C77.6694 33.4997 78.01 33.3171 78.4482 33.1711C78.8865 33.0493 79.4465 32.9884 80.1285 32.9884H83.5976V27.5103C81.6986 27.1451 80.2503 26.366 79.252 25.173C78.2537 23.98 77.6936 22.3974 77.5718 20.4253C77.5475 20.1088 77.5233 19.6949 77.4991 19.1837C77.4991 18.648 77.4991 18.1124 77.4991 17.5768C77.4991 17.0167 77.4991 16.4811 77.4991 15.9698C77.5233 15.4586 77.5475 15.0446 77.5718 14.7281C77.6936 12.2934 78.4725 10.443 79.909 9.17698C81.3698 7.88659 83.5367 7.2414 86.4098 7.2414C89.1368 7.2414 91.2428 7.88659 92.7278 9.17698C94.2377 10.443 95.0775 12.2934 95.2478 14.7281C95.272 15.0203 95.2845 15.4342 95.2845 15.9698V19.1837C95.2845 19.6949 95.272 20.1088 95.2478 20.4253C95.1993 22.3974 94.6759 23.9679 93.6776 25.1365C92.7035 26.2808 91.3161 27.0599 89.5141 27.4738V32.9884H94.1525C94.8338 32.9884 95.3938 33.0493 95.8321 33.1711C96.2703 33.3171 96.6116 33.4997 96.8546 33.7189C97.0983 33.9623 97.2568 34.2301 97.3295 34.5223C97.4271 34.8388 97.4756 35.1796 97.4756 35.5449C97.4756 35.8371 97.4271 36.1292 97.3295 36.4214C97.2568 36.7379 97.0983 37.0057 96.8546 37.2249C96.6116 37.4683 96.2703 37.6631 95.8321 37.8092C95.3938 37.9552 94.8338 38.0283 94.1525 38.0283H80.1285ZM86.4098 22.7992C86.605 22.7992 86.8605 22.787 87.1768 22.7627C87.4932 22.714 87.8096 22.6044 88.1267 22.434C88.4431 22.2635 88.711 22.0322 88.9298 21.7401C89.1735 21.4236 89.3071 20.9853 89.3313 20.4253C89.3562 20.0601 89.368 19.6219 89.368 19.1106V15.8602C89.368 15.349 89.3562 14.9229 89.3313 14.582C89.3313 14.0708 89.2101 13.6568 88.9665 13.3403C88.747 13.0239 88.4798 12.7926 88.1627 12.6465C87.8463 12.476 87.5175 12.3664 87.1768 12.3178C86.8605 12.269 86.605 12.2447 86.4098 12.2447C86.2152 12.2447 85.9598 12.2812 85.6427 12.3543C85.3263 12.403 85.0099 12.5125 84.6935 12.683C84.3771 12.8534 84.0968 13.109 83.8538 13.4499C83.6343 13.7664 83.5125 14.1803 83.4882 14.6916C83.464 15.0325 83.4398 15.4707 83.4155 16.0063C83.4155 16.5177 83.4155 17.0533 83.4155 17.6132C83.4155 18.1489 83.4155 18.6723 83.4155 19.1837C83.4398 19.6949 83.464 20.1088 83.4882 20.4253C83.4882 20.9853 83.5976 21.4236 83.8171 21.7401C84.0358 22.0322 84.3038 22.2635 84.6201 22.434C84.9372 22.6044 85.2536 22.714 85.57 22.7627C85.9106 22.787 86.191 22.7992 86.4098 22.7992ZM102.187 38.4665C101.797 38.4665 101.42 38.4178 101.055 38.3204C100.714 38.223 100.397 38.0527 100.105 37.8092C99.8371 37.5657 99.6183 37.237 99.448 36.8231C99.3019 36.4092 99.2285 35.8857 99.2285 35.2527V10.3091C99.2285 9.09176 99.5207 8.26397 100.105 7.82574C100.714 7.36314 101.408 7.13184 102.187 7.13184C102.577 7.13184 102.941 7.18053 103.283 7.27792C103.648 7.37531 103.964 7.54577 104.232 7.78918C104.5 8.03267 104.719 8.36137 104.89 8.77524C105.06 9.18917 105.145 9.70044 105.145 10.3091V19.0741H107.007C107.689 19.0741 108.249 19.1593 108.688 19.3297C109.126 19.4758 109.466 19.6706 109.71 19.9141C109.954 20.1575 110.112 20.4375 110.185 20.754C110.282 21.0462 110.331 21.3383 110.331 21.6305C110.331 21.9958 110.282 22.3366 110.185 22.6531C110.112 22.9696 109.954 23.2496 109.71 23.4931C109.466 23.7122 109.126 23.8948 108.688 24.0409C108.249 24.187 107.689 24.26 107.007 24.26H105.145V35.2527C105.145 35.8857 105.06 36.4092 104.89 36.8231C104.719 37.237 104.5 37.5657 104.232 37.8092C103.964 38.0527 103.648 38.223 103.283 38.3204C102.941 38.4178 102.577 38.4665 102.187 38.4665Z" fill="white"/>
<path d="M46.8128 38.8683C46.1311 38.8683 45.5954 38.7952 45.2059 38.6491C44.8164 38.5274 44.512 38.3448 44.2928 38.1013C44.0981 37.8822 43.9764 37.6144 43.9277 37.2979C43.879 37.0057 43.8546 36.677 43.8546 36.3118V30.9433C43.8546 29.7259 44.1468 28.8981 44.7311 28.4599C45.3398 27.9973 46.0337 27.766 46.8128 27.766C47.2023 27.766 47.5675 27.8147 47.9084 27.9121C48.2736 28.0095 48.5901 28.1799 48.8579 28.4233C49.1258 28.6668 49.3449 28.9955 49.5153 29.4094C49.6858 29.8233 49.7709 30.3346 49.7709 30.9433V33.8284H67.8487C68.5304 33.8284 69.0904 33.9014 69.5288 34.0475C69.9671 34.1936 70.3077 34.3762 70.5514 34.5953C70.7944 34.8388 70.9529 35.1066 71.0263 35.3988C71.1232 35.7153 71.1724 36.0196 71.1724 36.3118C71.1724 36.677 71.1232 37.0057 71.0263 37.2979C70.9529 37.6144 70.7944 37.8822 70.5514 38.1013C70.3077 38.3448 69.9671 38.5274 69.5288 38.6491C69.0904 38.7952 68.5304 38.8683 67.8487 38.8683H46.8128ZM46.1554 25.5017C45.4737 25.5017 44.9381 25.4408 44.5485 25.3191C44.1589 25.173 43.8546 24.9904 43.6355 24.7713C43.4407 24.5278 43.319 24.26 43.2703 23.9679C43.2216 23.6513 43.1973 23.3104 43.1973 22.9453V10.3457C43.1973 9.22572 43.4894 8.48308 44.0737 8.11789C44.6581 7.72833 45.4737 7.53358 46.5206 7.53358H55.5777C56.2595 7.53358 56.7951 7.60662 57.1847 7.7527C57.5742 7.87441 57.8664 8.05704 58.0612 8.30052C58.2803 8.51964 58.4142 8.78742 58.4629 9.10394C58.5116 9.3961 58.5359 9.72481 58.5359 10.09V22.3244C58.5359 22.9331 58.4507 23.4444 58.2803 23.8583C58.1342 24.2478 57.915 24.5644 57.6229 24.8078C57.3307 25.0513 56.9899 25.2339 56.6003 25.3557C56.2108 25.453 55.7847 25.5017 55.3221 25.5017H46.1554ZM52.6196 20.6444V12.3908H49.1136V20.6444H52.6196ZM67.0452 28.1312C66.6557 28.1312 66.2782 28.0825 65.9131 27.9851C65.5722 27.8877 65.2557 27.7173 64.9636 27.4738C64.6957 27.2304 64.4766 26.9017 64.3061 26.4878C64.1601 26.0739 64.087 25.5504 64.087 24.9174V10.3091C64.087 9.09176 64.3792 8.26397 64.9636 7.82574C65.5722 7.36314 66.2661 7.13184 67.0452 7.13184C67.4347 7.13184 67.7999 7.18053 68.1408 7.27792C68.506 7.37531 68.8226 7.54577 69.0903 7.78918C69.3578 8.03267 69.5773 8.36137 69.7476 8.77524C69.9179 9.18917 70.0031 9.70044 70.0031 10.3091V14.9838H72.6692C73.3511 14.9838 73.9111 15.0568 74.3494 15.2029C74.7876 15.349 75.1282 15.5437 75.3719 15.7872C75.6156 16.0063 75.7735 16.2742 75.8468 16.5907C75.9438 16.8829 75.9929 17.175 75.9929 17.4672C75.9929 17.8324 75.9438 18.1732 75.8468 18.4898C75.7735 18.7819 75.6156 19.0497 75.3719 19.2932C75.1282 19.5123 74.7876 19.6949 74.3494 19.841C73.9111 19.9627 73.3511 20.0236 72.6692 20.0236H70.0031V24.9174C70.0031 25.5504 69.9179 26.0739 69.7476 26.4878C69.5773 26.9017 69.3578 27.2304 69.0903 27.4738C68.8226 27.7173 68.506 27.8877 68.1408 27.9851C67.7999 28.0825 67.4347 28.1312 67.0452 28.1312Z" fill="white"/>
<path d="M10.1389 25.867C9.5302 25.867 9.04324 25.8061 8.67804 25.6843C8.31285 25.5626 8.03281 25.3922 7.83807 25.1731C7.64332 24.954 7.50936 24.7105 7.43632 24.4427C7.38765 24.1505 7.36328 23.834 7.36328 23.4931C7.36328 23.2253 7.38765 22.9575 7.43632 22.6897C7.50936 22.3975 7.64332 22.1419 7.83807 21.9228C8.03281 21.7036 8.31285 21.521 8.67804 21.3749C9.04324 21.2289 9.5302 21.1558 10.1389 21.1558H20.4012V19.1472H12.6953C12.038 19.1472 11.5266 19.0741 11.1614 18.928C10.7962 18.7576 10.5163 18.5507 10.3214 18.3072C10.1511 18.0394 10.0415 17.7472 9.9928 17.4307C9.94407 17.0898 9.91977 16.749 9.91977 16.4081V10.6744C9.91977 9.45706 10.2119 8.62927 10.7962 8.19097C11.4049 7.72837 12.0988 7.49707 12.8779 7.49707H33.9503C34.3399 7.49707 34.7051 7.54581 35.0459 7.64322C35.4112 7.74056 35.7276 7.911 35.9955 8.15449C36.2633 8.39797 36.4824 8.72661 36.6528 9.14054C36.8233 9.5544 36.9085 10.0657 36.9085 10.6744V16.4081C36.9085 16.749 36.8841 17.0898 36.8354 17.4307C36.7867 17.7472 36.665 18.0394 36.4703 18.3072C36.2998 18.5507 36.0198 18.7576 35.6303 18.928C35.265 19.0741 34.7659 19.1472 34.1329 19.1472H26.3175V21.1558H36.6894C37.298 21.1558 37.7849 21.2289 38.1502 21.3749C38.5154 21.521 38.7954 21.7036 38.9902 21.9228C39.1849 22.1419 39.3066 22.3975 39.3554 22.6897C39.4284 22.9575 39.4649 23.2253 39.4649 23.4931C39.4649 23.834 39.4284 24.1505 39.3554 24.4427C39.3066 24.7105 39.1849 24.954 38.9902 25.1731C38.7954 25.3922 38.5154 25.5626 38.1502 25.6843C37.7849 25.8061 37.298 25.867 36.6894 25.867H10.1389ZM12.8779 38.8683C12.1962 38.8683 11.6606 38.7953 11.271 38.6492C10.8815 38.5275 10.5771 38.3448 10.358 38.1014C10.1632 37.8822 10.0415 37.6145 9.9928 37.2979C9.94407 37.0058 9.91977 36.6771 9.91977 36.3119V30.7242C9.91977 29.799 10.1511 29.0442 10.6136 28.4599C11.1006 27.8513 11.9771 27.5469 13.2431 27.5469H33.9503C34.632 27.5469 35.1677 27.62 35.5572 27.766C35.9468 27.8877 36.239 28.0704 36.4337 28.3139C36.6528 28.533 36.7867 28.8008 36.8354 29.1173C36.8841 29.4094 36.9085 29.7381 36.9085 30.1033V35.691C36.9085 36.9084 36.592 37.7362 35.9589 38.1744C35.3259 38.637 34.5346 38.8683 33.5851 38.8683H12.8779ZM30.9922 34.1571V32.2581H15.8361V34.1571H30.9922ZM30.9922 14.509V12.1353H15.8361V14.509H30.9922Z" fill="white"/>
</g>
<defs>
<clipPath id="clip0_281_2587">
<rect width="117.692" height="45" fill="white" transform="translate(0 0.5)"/>
</clipPath>
</defs>
</svg>
