<svg width="24" height="24" viewBox="0 0 24 24" fill="none" xmlns="http://www.w3.org/2000/svg">
<path fill-rule="evenodd" clip-rule="evenodd" d="M5.21851 6.375L6.78024 7.62439L4.08 10.9997H10.9994C11.5517 10.9997 11.9994 11.4474 11.9994 11.9997C11.9994 12.552 11.5517 12.9997 10.9994 12.9997H4.08L6.78024 16.375L5.21851 17.6244L0.71875 11.9997L5.21851 6.375Z" fill="#0085FF"/>
<path fill-rule="evenodd" clip-rule="evenodd" d="M18.8189 3.66883C17.963 3.68951 16.8297 3.87598 15.178 4.15126L13.5068 4.42979C12.6833 4.56704 12.1573 4.65655 11.7726 4.77107C11.4147 4.87762 11.301 4.97282 11.237 5.04834C11.173 5.12387 11.0978 5.25174 11.0515 5.62229C11.0018 6.02055 11 6.55412 11 7.38897V8.1324H9V7.38897C9 7.36923 9 7.34956 9 7.32995C8.99996 6.57129 8.99992 5.91142 9.06695 5.37451C9.13918 4.79602 9.30096 4.23956 9.71094 3.75559C10.1209 3.27163 10.6432 3.02056 11.202 2.85422C11.7206 2.69983 12.3714 2.59138 13.1198 2.4667C13.1391 2.46348 13.1585 2.46025 13.178 2.457L14.9253 2.16578C16.4821 1.90628 17.7561 1.69392 18.7705 1.66941C19.8295 1.64383 20.7885 1.81464 21.5855 2.48977C22.3825 3.16489 22.7086 4.08285 22.8575 5.13156C23.0001 6.13625 23 7.42781 23 9.00605V14.9949C23 16.5731 23.0001 17.8647 22.8575 18.8694C22.7086 19.9181 22.3825 20.836 21.5855 21.5112C20.7885 22.1863 19.8295 22.3571 18.7705 22.3315C17.7561 22.307 16.4821 22.0946 14.9253 21.8351L13.1198 21.5342C12.3714 21.4095 11.7205 21.3011 11.202 21.1467C10.6432 20.9804 10.1209 20.7293 9.71094 20.2453C9.30096 19.7614 9.13918 19.2049 9.06695 18.6264C8.99992 18.0895 8.99996 17.4296 9 16.671L9 16.0664H11V16.612C11 17.4468 11.0018 17.9804 11.0515 18.3786C11.0978 18.7492 11.173 18.8771 11.237 18.9526C11.301 19.0281 11.4147 19.1233 11.7726 19.2299C12.1573 19.3444 12.6833 19.4339 13.5068 19.5711L15.178 19.8497C16.8297 20.125 17.963 20.3114 18.8189 20.3321C19.6467 20.3521 20.0288 20.2087 20.2928 19.9851C20.5567 19.7616 20.7609 19.4082 20.8773 18.5883C20.9976 17.7408 21 16.5922 21 14.9177V9.08323C21 7.40875 20.9976 6.26018 20.8773 5.41261C20.7609 4.59272 20.5567 4.23938 20.2928 4.01581C20.0288 3.79223 19.6467 3.64883 18.8189 3.66883Z" fill="#0085FF"/>
</svg>
