<svg width="32" height="32" viewBox="0 0 32 32" fill="none" xmlns="http://www.w3.org/2000/svg">
<path fill-rule="evenodd" clip-rule="evenodd" d="M8 9.33366C8 5.65176 10.9848 2.66699 14.6667 2.66699C18.3486 2.66699 21.3333 5.65176 21.3333 9.33366V20.0003C21.3333 22.2095 19.5425 24.0003 17.3333 24.0003C15.1242 24.0003 13.3333 22.2095 13.3333 20.0003V9.33366C13.3333 8.59728 13.9303 8.00033 14.6667 8.00033C15.403 8.00033 16 8.59728 16 9.33366V20.0003C16 20.7367 16.597 21.3337 17.3333 21.3337C18.0697 21.3337 18.6667 20.7367 18.6667 20.0003V9.33366C18.6667 7.12452 16.8758 5.33366 14.6667 5.33366C12.4575 5.33366 10.6667 7.12452 10.6667 9.33366V20.0003C10.6667 23.6822 13.6514 26.667 17.3333 26.667C21.0152 26.667 24 23.6822 24 20.0003V13.3337C24 12.5973 24.597 12.0003 25.3333 12.0003C26.0697 12.0003 26.6667 12.5973 26.6667 13.3337V20.0003C26.6667 25.155 22.488 29.3337 17.3333 29.3337C12.1787 29.3337 8 25.155 8 20.0003V9.33366Z" fill="#0085FF"/>
</svg>
