<svg width="984" height="150" viewBox="0 0 984 150" fill="none" xmlns="http://www.w3.org/2000/svg">
<rect width="984" height="150" rx="20" fill="#F5F7FA"/>
<path d="M126.035 89.6641C128.477 89.6836 131.172 91.1484 131.172 96.3633C131.172 101.383 129.121 104.195 125.801 104.195C123.32 104.195 121.562 102.672 121.211 100.426H122.949C123.262 101.695 124.219 102.633 125.801 102.633C128.105 102.633 129.512 100.641 129.531 97.2031H129.336C128.516 98.375 127.227 99.0781 125.723 99.0781C123.184 99.0781 121.094 97.1445 121.094 94.4102C121.094 91.7734 123.027 89.6445 126.035 89.6641ZM126.035 91.207C124.18 91.207 122.793 92.6523 122.812 94.3906C122.812 96.1484 124.121 97.5352 125.977 97.5352C127.812 97.5352 129.258 96.0117 129.258 94.3516C129.258 92.7305 127.91 91.207 126.035 91.207ZM138.203 104.195C135.645 104.195 133.711 102.613 133.613 100.445H135.312C135.449 101.715 136.68 102.652 138.203 102.652C140.039 102.652 141.367 101.305 141.367 99.5273C141.367 97.6914 139.98 96.3438 138.086 96.3242C136.895 96.3047 135.977 96.6758 135.449 97.5938H133.75L134.746 89.8594H142.402V91.4219H136.211L135.684 95.5625H135.82C136.445 95.0742 137.402 94.7422 138.398 94.7422C141.094 94.7422 143.086 96.7344 143.086 99.4883C143.086 102.223 141.016 104.195 138.203 104.195ZM150.254 104.195C147.285 104.195 145.215 102.555 145.234 100.25C145.215 98.4141 146.484 96.9102 148.105 96.6562V96.5781C146.699 96.2461 145.781 94.957 145.781 93.4141C145.781 91.2461 147.676 89.6641 150.254 89.6641C152.832 89.6641 154.727 91.2461 154.746 93.4141C154.727 94.957 153.789 96.2461 152.402 96.5781V96.6562C154.004 96.9102 155.273 98.4141 155.293 100.25C155.273 102.555 153.203 104.195 150.254 104.195ZM150.254 102.652C152.285 102.652 153.535 101.637 153.535 100.152C153.535 98.5898 152.148 97.4375 150.254 97.4375C148.359 97.4375 146.953 98.5898 146.992 100.152C146.953 101.637 148.223 102.652 150.254 102.652ZM150.254 95.9531C151.855 95.9531 153.027 94.9766 153.027 93.5508C153.027 92.1445 151.914 91.1875 150.254 91.1875C148.574 91.1875 147.48 92.1445 147.48 93.5508C147.48 94.9766 148.633 95.9531 150.254 95.9531ZM159.434 102.691L157.91 108.004H156.465L157.539 102.691H159.434ZM166.484 104.195C163.34 104.195 161.543 101.559 161.543 96.9297C161.543 92.3398 163.379 89.6641 166.484 89.6641C169.59 89.6641 171.426 92.3398 171.426 96.9297C171.426 101.559 169.609 104.195 166.484 104.195ZM166.484 102.633C168.516 102.633 169.707 100.582 169.707 96.9297C169.707 93.2773 168.516 91.1875 166.484 91.1875C164.453 91.1875 163.242 93.2773 163.242 96.9297C163.242 100.582 164.434 102.633 166.484 102.633ZM178.398 104.195C175.254 104.195 173.457 101.559 173.457 96.9297C173.457 92.3398 175.293 89.6641 178.398 89.6641C181.504 89.6641 183.34 92.3398 183.34 96.9297C183.34 101.559 181.523 104.195 178.398 104.195ZM178.398 102.633C180.43 102.633 181.621 100.582 181.621 96.9297C181.621 93.2773 180.43 91.1875 178.398 91.1875C176.367 91.1875 175.156 93.2773 175.156 96.9297C175.156 100.582 176.348 102.633 178.398 102.633ZM190.312 104.195C187.168 104.195 185.371 101.559 185.371 96.9297C185.371 92.3398 187.207 89.6641 190.312 89.6641C193.418 89.6641 195.254 92.3398 195.254 96.9297C195.254 101.559 193.438 104.195 190.312 104.195ZM190.312 102.633C192.344 102.633 193.535 100.582 193.535 96.9297C193.535 93.2773 192.344 91.1875 190.312 91.1875C188.281 91.1875 187.07 93.2773 187.07 96.9297C187.07 100.582 188.262 102.633 190.312 102.633Z" fill="#747474"/>
<path d="M120 97.6328H196.27V98.9902H120V97.6328Z" fill="#747474"/>
<path d="M215.113 90.6641C217.711 90.6836 220.445 92.2461 220.445 97.4219C220.445 102.383 218.316 105.195 214.918 105.195C212.32 105.195 210.484 103.594 210.152 101.289H212.281C212.574 102.48 213.492 103.32 214.918 103.32C217.105 103.32 218.375 101.406 218.395 98.1836H218.219C217.457 99.375 216.129 100.098 214.605 100.098C212.066 100.098 210.035 98.1641 210.035 95.4492C210.035 92.7539 212.047 90.6445 215.113 90.6641ZM215.113 92.4609C213.395 92.4609 212.125 93.7891 212.125 95.4102C212.125 97.0508 213.355 98.3398 215.074 98.3398C216.773 98.3398 218.102 96.9531 218.102 95.3906C218.102 93.8672 216.852 92.4609 215.113 92.4609ZM227.633 105.195C224.352 105.195 222.438 102.559 222.438 97.9297C222.438 93.3398 224.391 90.6641 227.633 90.6641C230.875 90.6641 232.828 93.3398 232.828 97.9297C232.828 102.559 230.895 105.195 227.633 105.195ZM227.633 103.34C229.547 103.34 230.68 101.465 230.68 97.9297C230.68 94.4141 229.527 92.4805 227.633 92.4805C225.738 92.4805 224.586 94.4141 224.586 97.9297C224.586 101.465 225.719 103.34 227.633 103.34ZM239.977 105.195C236.695 105.195 234.781 102.559 234.781 97.9297C234.781 93.3398 236.734 90.6641 239.977 90.6641C243.219 90.6641 245.172 93.3398 245.172 97.9297C245.172 102.559 243.238 105.195 239.977 105.195ZM239.977 103.34C241.891 103.34 243.023 101.465 243.023 97.9297C243.023 94.4141 241.871 92.4805 239.977 92.4805C238.082 92.4805 236.93 94.4141 236.93 97.9297C236.93 101.465 238.062 103.34 239.977 103.34ZM249.41 103.652L247.848 109.043H246.188L247.223 103.652H249.41ZM256.617 105.195C253.336 105.195 251.422 102.559 251.422 97.9297C251.422 93.3398 253.375 90.6641 256.617 90.6641C259.859 90.6641 261.812 93.3398 261.812 97.9297C261.812 102.559 259.879 105.195 256.617 105.195ZM256.617 103.34C258.531 103.34 259.664 101.465 259.664 97.9297C259.664 94.4141 258.512 92.4805 256.617 92.4805C254.723 92.4805 253.57 94.4141 253.57 97.9297C253.57 101.465 254.703 103.34 256.617 103.34ZM268.961 105.195C265.68 105.195 263.766 102.559 263.766 97.9297C263.766 93.3398 265.719 90.6641 268.961 90.6641C272.203 90.6641 274.156 93.3398 274.156 97.9297C274.156 102.559 272.223 105.195 268.961 105.195ZM268.961 103.34C270.875 103.34 272.008 101.465 272.008 97.9297C272.008 94.4141 270.855 92.4805 268.961 92.4805C267.066 92.4805 265.914 94.4141 265.914 97.9297C265.914 101.465 267.047 103.34 268.961 103.34ZM281.305 105.195C278.023 105.195 276.109 102.559 276.109 97.9297C276.109 93.3398 278.062 90.6641 281.305 90.6641C284.547 90.6641 286.5 93.3398 286.5 97.9297C286.5 102.559 284.566 105.195 281.305 105.195ZM281.305 103.34C283.219 103.34 284.352 101.465 284.352 97.9297C284.352 94.4141 283.199 92.4805 281.305 92.4805C279.41 92.4805 278.258 94.4141 278.258 97.9297C278.258 101.465 279.391 103.34 281.305 103.34Z" fill="#1D1D1D"/>
<path d="M147.829 41.5957C147.829 43.0586 149.798 44.4395 152.149 44.7676L151.644 45.7793C149.688 45.4785 147.959 44.5215 147.173 43.1953C146.38 44.5283 144.65 45.4785 142.688 45.7793L142.196 44.7676C144.548 44.4395 146.503 43.0723 146.503 41.5957V41.0762H147.829V41.5957ZM152.751 46.6406V47.6934H147.802V49.1426H151.384V53.1621H150.071V50.1816H142.825V49.1426H146.517V47.6934H141.581V46.6406H152.751ZM164.892 50.5371V51.6035H153.681V50.5371H158.589V47.625H159.874V50.5371H164.892ZM159.901 42.6211C159.901 44.5625 162.034 46.3809 164.399 46.7773L163.839 47.8438C161.856 47.4473 160.031 46.2236 159.218 44.5352C158.411 46.2168 156.606 47.4609 154.638 47.8438L154.063 46.7773C156.415 46.3809 158.534 44.5625 158.534 42.6211V41.6914H159.901V42.6211ZM179.343 40.9121V53.1895H178.044V40.9121H179.343ZM171.181 41.9375V45.082H174.476V41.9375H175.761V50.25H169.882V41.9375H171.181ZM171.181 49.1836H174.476V46.1074H171.181V49.1836ZM192.468 46.8867V47.9395H181.298V46.8867H183.978V45.2324C183.034 44.8496 182.501 44.2344 182.501 43.4277C182.501 41.9785 184.183 41.1309 186.876 41.1309C189.556 41.1309 191.251 41.9785 191.251 43.4277C191.251 44.2344 190.711 44.8564 189.761 45.2324V46.8867H192.468ZM186.876 48.7734C189.515 48.7734 191.101 49.5527 191.101 50.9473C191.101 52.3691 189.515 53.1348 186.876 53.1348C184.21 53.1348 182.624 52.3691 182.624 50.9473C182.624 49.5527 184.21 48.7734 186.876 48.7734ZM186.876 49.7715C185.003 49.7715 183.937 50.1953 183.937 50.9473C183.937 51.7129 185.003 52.1504 186.876 52.1367C188.722 52.1504 189.802 51.7129 189.802 50.9473C189.802 50.1953 188.722 49.7715 186.876 49.7715ZM186.876 42.1289C184.976 42.1289 183.827 42.6074 183.841 43.4277C183.827 44.248 184.976 44.7129 186.876 44.7129C188.776 44.7129 189.911 44.248 189.911 43.4277C189.911 42.6074 188.776 42.1289 186.876 42.1289ZM185.29 46.8867H188.476V45.5742C187.997 45.6562 187.457 45.6973 186.876 45.6973C186.302 45.6973 185.769 45.6562 185.29 45.5879V46.8867ZM194.136 48.2266C194.149 45.6562 194.874 43.5098 196.159 41.6777H197.499C196.556 43.0312 195.653 45.793 195.653 48.2266C195.653 50.6738 196.556 53.4219 197.499 54.7891H196.159C194.874 52.957 194.149 50.8105 194.136 48.2266ZM202.653 44.0293C202.64 46.2031 203.897 48.418 205.729 49.3066L204.923 50.3457C203.59 49.6553 202.558 48.2812 202.024 46.6406C201.471 48.3906 200.397 49.8535 199.003 50.5781L198.196 49.5254C200.083 48.623 201.354 46.2715 201.354 44.0293V41.9375H202.653V44.0293ZM207.944 40.9121V45.793H209.913V46.9004H207.944V53.1621H206.646V40.9121H207.944ZM214.78 43.168C214.78 44.7266 215.86 46.1484 217.72 46.7363L217.104 47.748C215.71 47.3037 214.691 46.3809 214.151 45.2188C213.618 46.5586 212.545 47.6182 211.075 48.1309L210.405 47.0918C212.319 46.4629 213.468 44.877 213.481 43.1816V42.8398H210.788V41.7871H217.419V42.8398H214.78V43.168ZM220.126 40.9121V43.9473H221.903V45.0137H220.126V48.2676H218.827V40.9121H220.126ZM216.175 48.5684C218.704 48.5684 220.235 49.4023 220.235 50.8379C220.235 52.2871 218.704 53.1484 216.175 53.1348C213.618 53.1484 212.06 52.2871 212.06 50.8379C212.06 49.4023 213.618 48.5684 216.175 48.5684ZM216.175 49.5938C214.397 49.5938 213.345 50.0449 213.358 50.8379C213.345 51.6582 214.397 52.1094 216.175 52.1094C217.938 52.1094 218.964 51.6582 218.964 50.8379C218.964 50.0449 217.938 49.5938 216.175 49.5938ZM232.745 40.9121V47.8301H231.46V40.9121H232.745ZM224.651 41.623V45.916C226.627 45.9023 228.363 45.7588 230.202 45.3691L230.38 46.4492C228.356 46.8594 226.511 47.0098 224.364 47.0098H223.353V41.623H224.651ZM232.745 48.3906V52.998H224.72V48.3906H232.745ZM225.991 49.416V51.959H231.474V49.416H225.991ZM247.743 40.8711V43.7422H249.534V44.8086H247.743V47.6113H246.444V40.8711H247.743ZM247.743 48.1855V51.0293H241.126V52.0547H248.167V53.0391H239.854V50.1133H246.458V49.1562H239.827V48.1855H247.743ZM245.433 41.9512V42.9766H238.132V41.9512H241.14V40.8027H242.438V41.9512H245.433ZM241.782 43.4414C243.573 43.4414 244.749 44.207 244.749 45.4512C244.749 46.6953 243.573 47.4473 241.782 47.4473C239.978 47.4473 238.802 46.6953 238.802 45.4512C238.802 44.207 239.978 43.4414 241.782 43.4414ZM241.782 44.3711C240.729 44.3711 240.046 44.7949 240.06 45.4512C240.046 46.1074 240.729 46.5039 241.782 46.5039C242.835 46.5039 243.519 46.1074 243.532 45.4512C243.519 44.7949 242.835 44.3711 241.782 44.3711ZM260.376 40.9258V49.8262H259.077V40.9258H260.376ZM260.745 51.8496V52.9023H252.364V48.9238H253.677V51.8496H260.745ZM253.731 41.7461C255.577 41.7461 256.985 43.0039 256.985 44.7812C256.985 46.5859 255.577 47.8301 253.731 47.8301C251.886 47.8301 250.464 46.5859 250.464 44.7812C250.464 43.0039 251.886 41.7461 253.731 41.7461ZM253.731 42.8809C252.583 42.8809 251.735 43.6602 251.735 44.7812C251.735 45.9297 252.583 46.6953 253.731 46.6953C254.853 46.6953 255.714 45.9297 255.714 44.7812C255.714 43.6602 254.853 42.8809 253.731 42.8809ZM265.681 48.2266C265.667 50.8105 264.942 52.957 263.657 54.7891H262.317C263.261 53.4219 264.163 50.6738 264.163 48.2266C264.163 45.793 263.261 43.0312 262.317 41.6777H263.657C264.942 43.5098 265.667 45.6562 265.681 48.2266Z" fill="#4D4D4D"/>
<path d="M428.756 40.9121V53.1895H427.471V46.4492H424.764V50.1543H419.021V41.8555H420.334V44.9863H423.492V41.8555H424.764V45.3828H427.471V40.9121H428.756ZM420.334 49.0879H423.492V46.0117H420.334V49.0879ZM436.863 42.6484C436.863 44.6445 438.996 46.5312 441.348 46.9551L440.746 48.0352C438.791 47.6113 436.986 46.3262 436.193 44.6035C435.387 46.3125 433.589 47.5977 431.627 48.0352L431.053 46.9551C433.377 46.5176 435.496 44.6445 435.496 42.6484V41.7188H436.863V42.6484ZM441.854 50.4688V51.5488H430.643V50.4688H441.854ZM456.305 40.9121V53.1895H455.006V40.9121H456.305ZM448.143 41.9375V45.082H451.438V41.9375H452.723V50.25H446.844V41.9375H448.143ZM448.143 49.1836H451.438V46.1074H448.143V49.1836ZM469.43 46.8867V47.9395H458.26V46.8867H460.939V45.2324C459.996 44.8496 459.463 44.2344 459.463 43.4277C459.463 41.9785 461.145 41.1309 463.838 41.1309C466.518 41.1309 468.213 41.9785 468.213 43.4277C468.213 44.2344 467.673 44.8564 466.723 45.2324V46.8867H469.43ZM463.838 48.7734C466.477 48.7734 468.062 49.5527 468.062 50.9473C468.062 52.3691 466.477 53.1348 463.838 53.1348C461.172 53.1348 459.586 52.3691 459.586 50.9473C459.586 49.5527 461.172 48.7734 463.838 48.7734ZM463.838 49.7715C461.965 49.7715 460.898 50.1953 460.898 50.9473C460.898 51.7129 461.965 52.1504 463.838 52.1367C465.684 52.1504 466.764 51.7129 466.764 50.9473C466.764 50.1953 465.684 49.7715 463.838 49.7715ZM463.838 42.1289C461.938 42.1289 460.789 42.6074 460.803 43.4277C460.789 44.248 461.938 44.7129 463.838 44.7129C465.738 44.7129 466.873 44.248 466.873 43.4277C466.873 42.6074 465.738 42.1289 463.838 42.1289ZM462.252 46.8867H465.438V45.5742C464.959 45.6562 464.419 45.6973 463.838 45.6973C463.264 45.6973 462.73 45.6562 462.252 45.5879V46.8867Z" fill="#4D4D4D"/>
<path d="M410.27 105.195C407.34 105.195 405.25 103.613 405.172 101.309H407.359C407.438 102.559 408.668 103.34 410.25 103.34C411.949 103.34 413.199 102.402 413.199 101.035C413.199 99.6484 412.027 98.6328 410.016 98.6328H408.805V96.875H410.016C411.617 96.875 412.75 95.9766 412.75 94.6289C412.75 93.3398 411.793 92.4609 410.289 92.4609C408.863 92.4609 407.613 93.2422 407.555 94.5312H405.484C405.543 92.2266 407.672 90.6641 410.309 90.6641C413.082 90.6641 414.84 92.4219 414.82 94.5117C414.84 96.1133 413.844 97.2852 412.32 97.6562V97.7539C414.254 98.0273 415.367 99.3164 415.367 101.113C415.367 103.477 413.199 105.195 410.27 105.195ZM422.672 105.195C419.605 105.195 417.457 103.535 417.477 101.23C417.457 99.4141 418.766 97.9297 420.426 97.6758V97.5977C418.98 97.2656 418.004 95.9766 418.004 94.4336C418.004 92.2656 419.977 90.6641 422.672 90.6641C425.348 90.6641 427.301 92.2656 427.32 94.4336C427.301 95.9766 426.324 97.2656 424.898 97.5977V97.6758C426.539 97.9297 427.848 99.4141 427.867 101.23C427.848 103.535 425.699 105.195 422.672 105.195ZM422.672 103.418C424.508 103.418 425.68 102.461 425.68 101.074C425.68 99.6094 424.41 98.5547 422.672 98.5547C420.914 98.5547 419.625 99.6094 419.664 101.074C419.625 102.461 420.797 103.418 422.672 103.418ZM422.672 96.8555C424.156 96.8555 425.211 95.957 425.211 94.6289C425.211 93.3203 424.176 92.4219 422.672 92.4219C421.109 92.4219 420.094 93.3008 420.094 94.6289C420.094 95.957 421.168 96.8555 422.672 96.8555ZM435.016 105.195C431.734 105.195 429.82 102.559 429.82 97.9297C429.82 93.3398 431.773 90.6641 435.016 90.6641C438.258 90.6641 440.211 93.3398 440.211 97.9297C440.211 102.559 438.277 105.195 435.016 105.195ZM435.016 103.34C436.93 103.34 438.062 101.465 438.062 97.9297C438.062 94.4141 436.91 92.4805 435.016 92.4805C433.121 92.4805 431.969 94.4141 431.969 97.9297C431.969 101.465 433.102 103.34 435.016 103.34ZM444.449 103.652L442.887 109.043H441.227L442.262 103.652H444.449ZM451.656 105.195C448.375 105.195 446.461 102.559 446.461 97.9297C446.461 93.3398 448.414 90.6641 451.656 90.6641C454.898 90.6641 456.852 93.3398 456.852 97.9297C456.852 102.559 454.918 105.195 451.656 105.195ZM451.656 103.34C453.57 103.34 454.703 101.465 454.703 97.9297C454.703 94.4141 453.551 92.4805 451.656 92.4805C449.762 92.4805 448.609 94.4141 448.609 97.9297C448.609 101.465 449.742 103.34 451.656 103.34ZM464 105.195C460.719 105.195 458.805 102.559 458.805 97.9297C458.805 93.3398 460.758 90.6641 464 90.6641C467.242 90.6641 469.195 93.3398 469.195 97.9297C469.195 102.559 467.262 105.195 464 105.195ZM464 103.34C465.914 103.34 467.047 101.465 467.047 97.9297C467.047 94.4141 465.895 92.4805 464 92.4805C462.105 92.4805 460.953 94.4141 460.953 97.9297C460.953 101.465 462.086 103.34 464 103.34ZM476.344 105.195C473.062 105.195 471.148 102.559 471.148 97.9297C471.148 93.3398 473.102 90.6641 476.344 90.6641C479.586 90.6641 481.539 93.3398 481.539 97.9297C481.539 102.559 479.605 105.195 476.344 105.195ZM476.344 103.34C478.258 103.34 479.391 101.465 479.391 97.9297C479.391 94.4141 478.238 92.4805 476.344 92.4805C474.449 92.4805 473.297 94.4141 473.297 97.9297C473.297 101.465 474.43 103.34 476.344 103.34Z" fill="#1D1D1D"/>
<path d="M608.909 44.0293C608.909 46.2715 610.167 48.5 612.04 49.3477L611.247 50.3867C609.853 49.6895 608.807 48.3018 608.267 46.627C607.727 48.3906 606.653 49.8809 605.245 50.6191L604.425 49.5664C606.325 48.6641 607.597 46.2988 607.597 44.0293V41.9375H608.909V44.0293ZM614.706 40.9121V53.1895H613.421V46.0391H610.687V44.9863H613.421V40.9121H614.706ZM626.737 40.9121V53.1895H625.438V40.9121H626.737ZM618.575 41.9375V45.082H621.87V41.9375H623.155V50.25H617.276V41.9375H618.575ZM618.575 49.1836H621.87V46.1074H618.575V49.1836ZM634.913 42.6484C634.913 44.6445 637.046 46.5312 639.397 46.9551L638.796 48.0352C636.841 47.6113 635.036 46.3262 634.243 44.6035C633.437 46.3125 631.639 47.5977 629.677 48.0352L629.103 46.9551C631.427 46.5176 633.546 44.6445 633.546 42.6484V41.7188H634.913V42.6484ZM639.903 50.4688V51.5488H628.692V50.4688H639.903ZM653.835 40.8711V43.7422H655.626V44.8086H653.835V47.6113H652.536V40.8711H653.835ZM653.835 48.1855V51.0293H647.218V52.0547H654.259V53.0391H645.946V50.1133H652.55V49.1562H645.919V48.1855H653.835ZM651.524 41.9512V42.9766H644.224V41.9512H647.231V40.8027H648.53V41.9512H651.524ZM647.874 43.4414C649.665 43.4414 650.841 44.207 650.841 45.4512C650.841 46.6953 649.665 47.4473 647.874 47.4473C646.069 47.4473 644.894 46.6953 644.894 45.4512C644.894 44.207 646.069 43.4414 647.874 43.4414ZM647.874 44.3711C646.821 44.3711 646.138 44.7949 646.151 45.4512C646.138 46.1074 646.821 46.5039 647.874 46.5039C648.927 46.5039 649.61 46.1074 649.624 45.4512C649.61 44.7949 648.927 44.3711 647.874 44.3711ZM666.468 40.9258V49.8262H665.169V40.9258H666.468ZM666.837 51.8496V52.9023H658.456V48.9238H659.769V51.8496H666.837ZM659.823 41.7461C661.669 41.7461 663.077 43.0039 663.077 44.7812C663.077 46.5859 661.669 47.8301 659.823 47.8301C657.978 47.8301 656.556 46.5859 656.556 44.7812C656.556 43.0039 657.978 41.7461 659.823 41.7461ZM659.823 42.8809C658.675 42.8809 657.827 43.6602 657.827 44.7812C657.827 45.9297 658.675 46.6953 659.823 46.6953C660.944 46.6953 661.806 45.9297 661.806 44.7812C661.806 43.6602 660.944 42.8809 659.823 42.8809Z" fill="#4D4D4D"/>
<path d="M819.763 47.1875V48.2402H808.593V47.1875H813.528V45.7793H814.813V47.1875H819.763ZM814.813 40.8984V42.0742H818.642V43.1133H814.896C815.032 44.2959 816.728 45.1846 819.161 45.3828L818.765 46.3809C816.646 46.1826 814.93 45.4717 814.171 44.3301C813.405 45.4717 811.689 46.1826 809.591 46.3809L809.181 45.3828C811.601 45.1846 813.296 44.2959 813.446 43.1133H809.714V42.0742H813.528V40.8984H814.813ZM814.171 49.0469C816.837 49.0469 818.396 49.7715 818.396 51.0977C818.396 52.4238 816.837 53.1484 814.171 53.1348C811.491 53.1484 809.919 52.4238 809.919 51.0977C809.919 49.7715 811.491 49.0469 814.171 49.0469ZM814.171 50.0176C812.284 50.0176 811.231 50.4004 811.231 51.0977C811.231 51.7949 812.284 52.1641 814.171 52.1504C816.03 52.1641 817.097 51.7949 817.097 51.0977C817.097 50.4004 816.03 50.0176 814.171 50.0176ZM834.255 40.9121V53.1895H832.956V40.9121H834.255ZM826.093 41.9375V45.082H829.388V41.9375H830.673V50.25H824.794V41.9375H826.093ZM826.093 49.1836H829.388V46.1074H826.093V49.1836ZM847.38 46.8867V47.9395H836.21V46.8867H838.89V45.2324C837.946 44.8496 837.413 44.2344 837.413 43.4277C837.413 41.9785 839.095 41.1309 841.788 41.1309C844.468 41.1309 846.163 41.9785 846.163 43.4277C846.163 44.2344 845.623 44.8564 844.673 45.2324V46.8867H847.38ZM841.788 48.7734C844.427 48.7734 846.013 49.5527 846.013 50.9473C846.013 52.3691 844.427 53.1348 841.788 53.1348C839.122 53.1348 837.536 52.3691 837.536 50.9473C837.536 49.5527 839.122 48.7734 841.788 48.7734ZM841.788 49.7715C839.915 49.7715 838.849 50.1953 838.849 50.9473C838.849 51.7129 839.915 52.1504 841.788 52.1367C843.634 52.1504 844.714 51.7129 844.714 50.9473C844.714 50.1953 843.634 49.7715 841.788 49.7715ZM841.788 42.1289C839.888 42.1289 838.739 42.6074 838.753 43.4277C838.739 44.248 839.888 44.7129 841.788 44.7129C843.688 44.7129 844.823 44.248 844.823 43.4277C844.823 42.6074 843.688 42.1289 841.788 42.1289ZM840.202 46.8867H843.388V45.5742C842.909 45.6562 842.369 45.6973 841.788 45.6973C841.214 45.6973 840.681 45.6562 840.202 45.5879V46.8867Z" fill="#4D4D4D"/>
<path d="M605.621 90.8594V105H603.453V93.0078H603.375L599.996 95.2148V93.1641L603.512 90.8594H605.621ZM614.02 105.195C611.344 105.195 609.332 103.555 609.234 101.309H611.324C611.441 102.52 612.594 103.398 614.02 103.398C615.738 103.398 616.969 102.148 616.969 100.469C616.969 98.75 615.699 97.5 613.922 97.4805C612.789 97.4805 611.93 97.8516 611.441 98.7305H609.41L610.328 90.8594H618.336V92.6953H612.105L611.637 96.6602H611.773C612.359 96.0938 613.355 95.7031 614.43 95.7031C617.086 95.7031 619.059 97.6758 619.059 100.41C619.059 103.203 616.969 105.195 614.02 105.195ZM626.266 105.195C622.984 105.195 621.07 102.559 621.07 97.9297C621.07 93.3398 623.023 90.6641 626.266 90.6641C629.508 90.6641 631.461 93.3398 631.461 97.9297C631.461 102.559 629.527 105.195 626.266 105.195ZM626.266 103.34C628.18 103.34 629.312 101.465 629.312 97.9297C629.312 94.4141 628.16 92.4805 626.266 92.4805C624.371 92.4805 623.219 94.4141 623.219 97.9297C623.219 101.465 624.352 103.34 626.266 103.34ZM635.699 103.652L634.137 109.043H632.477L633.512 103.652H635.699ZM642.906 105.195C639.625 105.195 637.711 102.559 637.711 97.9297C637.711 93.3398 639.664 90.6641 642.906 90.6641C646.148 90.6641 648.102 93.3398 648.102 97.9297C648.102 102.559 646.168 105.195 642.906 105.195ZM642.906 103.34C644.82 103.34 645.953 101.465 645.953 97.9297C645.953 94.4141 644.801 92.4805 642.906 92.4805C641.012 92.4805 639.859 94.4141 639.859 97.9297C639.859 101.465 640.992 103.34 642.906 103.34ZM655.25 105.195C651.969 105.195 650.055 102.559 650.055 97.9297C650.055 93.3398 652.008 90.6641 655.25 90.6641C658.492 90.6641 660.445 93.3398 660.445 97.9297C660.445 102.559 658.512 105.195 655.25 105.195ZM655.25 103.34C657.164 103.34 658.297 101.465 658.297 97.9297C658.297 94.4141 657.145 92.4805 655.25 92.4805C653.355 92.4805 652.203 94.4141 652.203 97.9297C652.203 101.465 653.336 103.34 655.25 103.34ZM667.594 105.195C664.312 105.195 662.398 102.559 662.398 97.9297C662.398 93.3398 664.352 90.6641 667.594 90.6641C670.836 90.6641 672.789 93.3398 672.789 97.9297C672.789 102.559 670.855 105.195 667.594 105.195ZM667.594 103.34C669.508 103.34 670.641 101.465 670.641 97.9297C670.641 94.4141 669.488 92.4805 667.594 92.4805C665.699 92.4805 664.547 94.4141 664.547 97.9297C664.547 101.465 665.68 103.34 667.594 103.34Z" fill="#1D1D1D"/>
<path d="M786.207 90.8594V105H783.258V93.6523H783.18L779.938 95.6836V93.0859L783.434 90.8594H786.207ZM791.891 103.555L790.211 109.121H788.141L789.117 103.555H791.891ZM798.805 90.8594V105H795.855V93.6523H795.777L792.535 95.6836V93.0859L796.031 90.8594H798.805ZM807.32 105.195C804.215 105.195 801.988 103.477 801.93 101.016H804.898C804.957 102.07 805.973 102.773 807.34 102.773C808.746 102.773 809.762 101.973 809.742 100.84C809.762 99.6875 808.727 98.8672 807.066 98.8672H805.758V96.6992H807.066C808.453 96.6992 809.43 95.9375 809.43 94.8242C809.43 93.75 808.609 93.0078 807.359 93.0078C806.109 93.0078 805.074 93.7109 805.035 94.7852H802.223C802.262 92.3438 804.469 90.6641 807.359 90.6641C810.309 90.6641 812.281 92.4023 812.262 94.6484C812.281 96.2305 811.168 97.3633 809.586 97.6367V97.7539C811.656 98.0078 812.809 99.2773 812.789 101.035C812.809 103.457 810.504 105.195 807.32 105.195ZM820.348 105.195C816.812 105.195 814.664 102.559 814.664 97.9297C814.664 93.3008 816.812 90.6641 820.348 90.6641C823.883 90.6641 826.031 93.3203 826.031 97.9297C826.031 102.578 823.883 105.195 820.348 105.195ZM820.348 102.773C821.988 102.773 823.043 101.191 823.023 97.9297C823.023 94.707 821.988 93.0664 820.348 93.0664C818.707 93.0664 817.672 94.707 817.672 97.9297C817.652 101.191 818.707 102.773 820.348 102.773ZM830.641 103.555L828.961 109.121H826.891L827.867 103.555H830.641ZM838.121 105.195C834.586 105.195 832.438 102.559 832.438 97.9297C832.438 93.3008 834.586 90.6641 838.121 90.6641C841.656 90.6641 843.805 93.3203 843.805 97.9297C843.805 102.578 841.656 105.195 838.121 105.195ZM838.121 102.773C839.762 102.773 840.816 101.191 840.797 97.9297C840.797 94.707 839.762 93.0664 838.121 93.0664C836.48 93.0664 835.445 94.707 835.445 97.9297C835.426 101.191 836.48 102.773 838.121 102.773ZM851.324 105.195C847.789 105.195 845.641 102.559 845.641 97.9297C845.641 93.3008 847.789 90.6641 851.324 90.6641C854.859 90.6641 857.008 93.3203 857.008 97.9297C857.008 102.578 854.859 105.195 851.324 105.195ZM851.324 102.773C852.965 102.773 854.02 101.191 854 97.9297C854 94.707 852.965 93.0664 851.324 93.0664C849.684 93.0664 848.648 94.707 848.648 97.9297C848.629 101.191 849.684 102.773 851.324 102.773ZM864.527 105.195C860.992 105.195 858.844 102.559 858.844 97.9297C858.844 93.3008 860.992 90.6641 864.527 90.6641C868.062 90.6641 870.211 93.3203 870.211 97.9297C870.211 102.578 868.062 105.195 864.527 105.195ZM864.527 102.773C866.168 102.773 867.223 101.191 867.203 97.9297C867.203 94.707 866.168 93.0664 864.527 93.0664C862.887 93.0664 861.852 94.707 861.852 97.9297C861.832 101.191 862.887 102.773 864.527 102.773Z" fill="#1D1D1D"/>
<path fill-rule="evenodd" clip-rule="evenodd" d="M349 91L349 105L347 105L347 91L349 91Z" fill="#1D1D1D"/>
<path fill-rule="evenodd" clip-rule="evenodd" d="M355 99L341 99L341 97L355 97L355 99Z" fill="#1D1D1D"/>
<path fill-rule="evenodd" clip-rule="evenodd" d="M547 99L533 99L533 97L547 97L547 99Z" fill="#1D1D1D"/>
<path fill-rule="evenodd" clip-rule="evenodd" d="M725 100H739V102H725V100Z" fill="#1D1D1D"/>
<path fill-rule="evenodd" clip-rule="evenodd" d="M739 96L725 96L725 94L739 94L739 96Z" fill="#1D1D1D"/>
</svg>
