<svg width="32" height="32" viewBox="0 0 32 32" fill="none" xmlns="http://www.w3.org/2000/svg">
<path fill-rule="evenodd" clip-rule="evenodd" d="M24.6221 6.37389C23.9906 6.48623 23.0952 6.78007 21.6616 7.25795L10.8433 10.8641C9.46428 11.3237 8.49134 11.6486 7.7915 11.9216C7.44538 12.0567 7.20433 12.1646 7.03671 12.253C6.89473 12.3279 6.84369 12.3691 6.84066 12.3713C6.16423 13.0261 6.16422 14.1112 6.84066 14.766C6.84369 14.7681 6.89473 14.8094 7.03671 14.8843C7.20433 14.9727 7.44538 15.0806 7.7915 15.2156C8.49134 15.4887 9.46428 15.8135 10.8433 16.2732C10.8749 16.2838 10.9063 16.2942 10.9374 16.3046C11.3931 16.4561 11.7931 16.5891 12.1614 16.7839C13.0488 17.2532 13.7745 17.9789 14.2438 18.8663C14.4386 19.2346 14.5716 19.6346 14.7232 20.0903C14.7335 20.1214 14.7439 20.1528 14.7545 20.1844C15.2142 21.5634 15.539 22.5364 15.8121 23.2362C15.9471 23.5823 16.055 23.8234 16.1434 23.991C16.2183 24.133 16.2596 24.184 16.2617 24.187C16.9165 24.8635 18.0016 24.8635 18.6565 24.187C18.6586 24.184 18.6998 24.133 18.7747 23.991C18.8632 23.8234 18.971 23.5823 19.1061 23.2362C19.3791 22.5364 19.704 21.5634 20.1636 20.1844L23.7698 9.36614C24.2476 7.93251 24.5415 7.03714 24.6538 6.40563C24.6561 6.39248 24.6584 6.37969 24.6605 6.36725C24.648 6.36934 24.6352 6.37156 24.6221 6.37389ZM25.0537 6.33537C25.0533 6.33567 25.0479 6.33523 25.0383 6.33311C25.0492 6.33401 25.054 6.33507 25.0537 6.33537ZM24.6946 5.9894C24.6925 5.97983 24.692 5.97436 24.6923 5.97401C24.6926 5.97367 24.6937 5.97844 24.6946 5.9894ZM24.0383 3.09208C24.9566 2.92872 26.2141 2.88008 27.1809 3.84684C28.1476 4.8136 28.099 6.07111 27.9356 6.98943C27.7751 7.89182 27.3977 9.02368 26.9718 10.3008L26.932 10.4202L23.3259 21.2385L23.3103 21.2855C22.8698 22.6069 22.5187 23.6602 22.2114 24.4478C21.9226 25.1881 21.5801 25.9554 21.0643 26.4921C19.0968 28.5396 15.8213 28.5396 13.8539 26.4921C13.3381 25.9554 12.9956 25.1881 12.7067 24.4478C12.3994 23.6602 12.0484 22.6071 11.608 21.2857L11.5922 21.2385C11.3916 20.6365 11.3464 20.5177 11.2972 20.4247C11.1407 20.1289 10.8988 19.887 10.603 19.7305C10.51 19.6813 10.3912 19.6361 9.78917 19.4355L9.74195 19.4197C8.42065 18.9793 7.36746 18.6283 6.57989 18.321C5.83958 18.0321 5.0723 17.6896 4.53555 17.1738C2.48815 15.2064 2.48815 11.9309 4.53555 9.96341C5.0723 9.44762 5.83958 9.10513 6.57989 8.81629C7.36749 8.50899 8.42072 8.15792 9.7421 7.71746L9.78917 7.70177L20.6075 4.09567C20.6474 4.08236 20.6872 4.0691 20.7268 4.05588C22.004 3.63002 23.1359 3.25261 24.0383 3.09208Z" fill="#0085FF"/>
</svg>
