<svg width="520" height="152" viewBox="0 0 520 152" fill="none" xmlns="http://www.w3.org/2000/svg">
<path d="M48.6482 6.88712C52.3449 6.88712 56.0415 6.88629 59.7382 6.88712C60.6599 6.88712 61.3324 7.52046 61.3215 8.36629C61.3115 9.15129 60.6899 9.78212 59.8832 9.78462C59.609 9.78546 59.5265 9.85462 59.4999 10.1338C59.1299 13.9813 57.2665 16.8846 53.924 18.8346C53.714 18.9571 53.6949 19.038 53.8099 19.2421C55.2274 21.7638 56.6382 24.2896 58.0399 26.8205C58.1457 27.0113 58.239 27.0446 58.4465 27.0105C59.7024 26.803 60.7957 27.5521 61.0432 28.7721C61.2815 29.9421 60.5565 31.123 59.4132 31.428C58.214 31.7471 57.0032 31.1055 56.6382 29.9296C56.5707 29.7138 56.459 29.7205 56.299 29.7205C54.5915 29.7221 52.8832 29.7213 51.1757 29.7213C47.1249 29.7213 43.074 29.7238 39.024 29.7146C38.7682 29.7146 38.6324 29.7946 38.5199 30.0155C38.3182 30.413 38.089 30.7963 37.869 31.1838C37.6915 31.4963 37.4624 31.5855 37.2115 31.4421C36.9574 31.2971 36.9149 31.068 37.094 30.7438C37.9524 29.1921 38.814 27.643 39.6732 26.0921C40.9499 23.7888 42.2224 21.483 43.5049 19.1821C43.6107 18.993 43.6149 18.9121 43.4024 18.7938C41.1907 17.563 39.5915 15.7788 38.599 13.453C38.539 13.3121 38.4915 13.2138 38.2974 13.218C37.4857 13.233 36.6732 13.2288 35.8607 13.2205C35.6882 13.2188 35.6215 13.2596 35.6324 13.4421C35.6474 13.6905 35.6424 13.9413 35.6332 14.1896C35.6224 14.4946 35.4557 14.6621 35.1749 14.6671C34.8882 14.6721 34.684 14.4905 34.6815 14.1846C34.6732 13.2288 34.674 12.273 34.6832 11.3163C34.6857 11.0221 34.8832 10.8496 35.159 10.8546C35.4232 10.8596 35.6207 11.0488 35.6324 11.3313C35.6432 11.5905 35.6449 11.8513 35.6324 12.1105C35.6257 12.2655 35.684 12.303 35.8299 12.3013C36.5382 12.2955 37.2465 12.2905 37.954 12.303C38.1957 12.3071 38.1365 12.1771 38.1074 12.0471C37.9615 11.4088 37.8332 10.7671 37.8107 10.1121C37.8015 9.83796 37.6982 9.78212 37.4382 9.78296C36.7365 9.78462 36.1099 9.24296 36.004 8.58462C35.889 7.86712 36.2899 7.19712 36.9732 6.96546C37.194 6.89046 37.4215 6.88379 37.6507 6.88379C41.3157 6.88379 44.9815 6.88379 48.6465 6.88379L48.6482 6.88712Z" fill="#747474"/>
<path d="M45.0839 1.07966C45.0814 1.1855 45.0647 1.2905 44.9889 1.36883C44.5264 1.84383 44.6272 2.34716 44.9247 2.84883C45.1314 3.19716 45.3431 3.538 45.4106 3.94883C45.5231 4.63633 45.1064 5.593 44.5172 5.95883C44.2889 6.10133 44.0597 6.10216 43.8647 5.9005C43.6931 5.723 43.7147 5.4305 43.9006 5.22466C43.9981 5.11716 44.1047 5.01716 44.1939 4.90216C44.5506 4.4405 44.5714 3.99216 44.2431 3.49383C43.9706 3.0805 43.7489 2.65133 43.7206 2.148C43.6906 1.61716 43.8389 1.143 44.2147 0.75383C44.3781 0.584663 44.5797 0.555496 44.7881 0.642163C44.9747 0.719663 45.0797 0.869663 45.0847 1.07883L45.0839 1.07966Z" fill="#747474"/>
<path d="M48.5467 4.12697C48.5409 3.81281 48.4 3.55114 48.2384 3.29364C47.8359 2.65281 47.6884 1.97864 47.9967 1.25281C48.0825 1.05031 48.2009 0.86614 48.3684 0.72114C48.5584 0.556973 48.8625 0.551973 49.025 0.717806C49.2092 0.905306 49.2434 1.15031 49.0717 1.33781C48.56 1.89697 48.7184 2.43947 49.0742 2.98114C49.4192 3.50614 49.6017 4.05947 49.4384 4.68864C49.3117 5.17614 49.0467 5.57947 48.6642 5.90197C48.4167 6.11031 48.1117 6.10364 47.935 5.90447C47.7517 5.69781 47.7767 5.42531 48.015 5.18447C48.3084 4.88864 48.5259 4.55781 48.5475 4.12697H48.5467Z" fill="#747474"/>
<path d="M52.3398 6.05421C52.1881 6.05088 52.0373 5.98838 51.9531 5.82588C51.8606 5.64838 51.8598 5.46421 51.9823 5.29671C52.0373 5.22171 52.1114 5.16171 52.1748 5.09338C52.7023 4.52255 52.7556 3.99921 52.3398 3.34671C51.9598 2.75005 51.7881 2.12005 52.0031 1.42338C52.0839 1.16255 52.2173 0.927547 52.4198 0.740047C52.6173 0.556714 52.9214 0.551714 53.1023 0.717547C53.2773 0.87838 53.3098 1.16838 53.1273 1.36588C52.6548 1.87755 52.7798 2.39088 53.0998 2.90088C53.3631 3.32005 53.5848 3.74505 53.5673 4.25838C53.5431 4.94838 53.2181 5.48171 52.7114 5.92171C52.6148 6.00505 52.4989 6.05005 52.3414 6.05255L52.3398 6.05421Z" fill="#747474"/>
<path d="M48.6459 9.79406C51.8509 9.79406 55.0568 9.79656 58.2618 9.78906C58.5009 9.78906 58.5718 9.83573 58.5551 10.0891C58.2809 14.3232 55.0293 18.1057 50.8659 19.0191C45.1018 20.2841 39.5526 16.4132 38.7668 10.5791C38.7568 10.5074 38.7543 10.4341 38.7468 10.3616C38.7106 9.98323 38.8884 9.79406 39.2801 9.79406H48.6459Z" fill="white"/>
<path d="M39.2285 28.8061C39.396 28.5044 39.5402 28.2436 39.6852 27.9844C41.2452 25.1994 42.8077 22.4161 44.361 19.6269C44.4743 19.4227 44.5627 19.3811 44.7877 19.4669C47.3527 20.4436 49.9227 20.4377 52.4877 19.4661C52.6935 19.3877 52.7802 19.4127 52.891 19.6127C54.3152 22.1886 55.7502 24.7586 57.1885 27.3261C57.2793 27.4877 57.2844 27.5819 57.1385 27.7119C56.886 27.9377 56.7135 28.2319 56.6418 28.5586C56.5952 28.7727 56.5002 28.8102 56.3052 28.8094C54.4944 28.8027 52.6835 28.8052 50.8718 28.8052H39.2285V28.8061Z" fill="white"/>
<path d="M48.6262 8.86896C44.9937 8.86896 41.3612 8.86896 37.7296 8.86896C37.6254 8.86896 37.5212 8.87313 37.4171 8.86563C37.1221 8.84396 36.9029 8.61896 36.9004 8.34313C36.8987 8.08063 37.1021 7.85146 37.3796 7.8123C37.4712 7.7998 37.5662 7.80646 37.6604 7.80646C44.9771 7.80646 52.2937 7.80646 59.6104 7.80646C59.7146 7.80646 59.8204 7.7998 59.9212 7.81896C60.1779 7.86896 60.3679 8.10646 60.3612 8.3523C60.3546 8.6148 60.1421 8.83813 59.8662 8.86396C59.7629 8.87396 59.6579 8.86896 59.5546 8.86896C55.9121 8.86896 52.2687 8.86896 48.6262 8.86896Z" fill="white"/>
<path d="M57.4983 29.2027C57.5125 28.4469 58.1041 27.8744 58.865 27.8819C59.6216 27.8886 60.2258 28.5094 60.2083 29.2644C60.1916 30.0144 59.5891 30.5977 58.84 30.5877C58.0816 30.5786 57.4841 29.9611 57.4983 29.2027Z" fill="white"/>
<path d="M49.1954 17.5601C49.0813 17.5668 48.9671 17.5751 48.8521 17.5801C48.6621 17.5876 48.5071 17.5176 48.5021 17.3143C48.4963 17.0959 48.6804 17.0976 48.8404 17.0909C50.4854 17.0251 51.9763 16.5143 53.3021 15.5368C54.0629 14.9751 54.6988 14.2959 55.2013 13.4934C55.2346 13.4409 55.2688 13.3884 55.3004 13.3351C55.3963 13.1768 55.5054 13.0126 55.7154 13.1501C55.9013 13.2718 55.8288 13.4401 55.7304 13.5868C55.5388 13.8701 55.3579 14.1634 55.1429 14.4293C53.6121 16.3243 51.6154 17.3426 49.1954 17.5609V17.5601Z" fill="#747474"/>
<path d="M56.6316 11.674C56.6008 11.8324 56.5016 11.9249 56.3349 11.9274C56.2099 11.929 56.0883 11.8807 56.1099 11.7365C56.1324 11.5857 56.1924 11.4149 56.3924 11.4307C56.5133 11.4407 56.6324 11.5082 56.6324 11.674H56.6316Z" fill="#747474"/>
<path d="M80.4844 11.0312V15.1328H82.2305V15.9297H80.4844V21.4492H79.5703V11.0312H80.4844ZM73.7695 11.9219V14.6758H76.8164V11.9219H77.7305V18.9531H72.8555V11.9219H73.7695ZM73.7695 18.1797H76.8164V15.4141H73.7695V18.1797ZM84.0586 12.0625V14.6172H86.332V12.0625H87.1758V14.9922H88.7461V11.2656H89.625V20.9336H88.7461V15.7656H87.1758V18.8359H83.1797V12.0625H84.0586ZM84.0586 18.0625H86.332V15.3672H84.0586V18.0625ZM91.7227 11.0312V21.4492H90.832V11.0312H91.7227ZM101.438 11.6758V12.6133C101.438 13.7148 101.438 14.9043 101.074 16.5859H102.656V17.3477H100.148V21.4492H99.2344V17.3477H96.5625V21.4492H95.6484V17.3477H93.1641V16.5859H100.16C100.33 15.8535 100.43 15.209 100.488 14.6172L94.1953 14.9453L94.0781 14.1367L100.547 13.9141C100.564 13.4512 100.564 13.0234 100.57 12.6133V12.4258H94.3711V11.6758H101.438ZM107.062 13.0117C107.062 14.3711 108.082 15.5898 109.617 16.0938L109.184 16.8203C107.982 16.4277 107.074 15.5957 106.629 14.5469C106.178 15.7422 105.217 16.6738 103.969 17.125L103.5 16.3867C105.059 15.8594 106.148 14.5117 106.16 13.0117V12.5664H103.781V11.8047H109.406V12.5664H107.062V13.0117ZM111.68 11.0312V13.6914H113.25V14.4648H111.68V17.3242H110.766V11.0312H111.68ZM108.34 17.6055C110.484 17.6055 111.773 18.3086 111.773 19.5039C111.773 20.7227 110.484 21.4258 108.34 21.4258C106.195 21.4258 104.883 20.7227 104.883 19.5039C104.883 18.3086 106.195 17.6055 108.34 17.6055ZM108.34 18.3438C106.77 18.3438 105.797 18.7773 105.809 19.5039C105.797 20.2539 106.77 20.6875 108.34 20.6875C109.922 20.6875 110.883 20.2539 110.883 19.5039C110.883 18.7773 109.922 18.3438 108.34 18.3438Z" fill="#747474"/>
<path d="M231.648 2.00488C235.672 2.00822 238.654 4.78572 238.983 8.49072C239.291 11.9549 236.772 15.224 233.299 15.8649C233.177 15.8874 233.051 15.9307 232.931 15.9207C232.363 15.8724 231.968 16.1732 231.556 16.5124C226.387 20.7632 221.208 25.0032 216.033 29.2457C215.608 29.594 215.436 29.5857 215.052 29.2015C214.692 28.8407 214.324 28.4874 213.976 28.1157C213.838 27.9699 213.767 27.9865 213.636 28.1215C213.085 28.6882 212.525 29.2465 211.962 29.8007C211.649 30.1082 211.237 30.0499 211.096 29.6874C211 29.4407 211.099 29.2491 211.276 29.074C211.808 28.5474 212.328 28.0074 212.868 27.4899C213.053 27.3124 213.101 27.2082 212.88 27.0124C212.5 26.6749 212.153 26.299 211.795 25.9357C211.494 25.6307 211.483 25.4224 211.75 25.094C214.458 21.7749 217.168 18.4574 219.876 15.139C221.553 13.0857 223.227 11.0299 224.911 8.98238C225.062 8.79905 225.059 8.60405 225.08 8.40238C225.32 6.05155 226.447 4.24988 228.442 3.00322C229.532 2.32238 230.737 2.01072 231.648 2.00572L231.648 2.00488Z" fill="#0085FF"/>
<path d="M225.546 9.77036C227.453 11.6804 229.348 13.5787 231.249 15.482C229.265 17.1095 227.272 18.7437 225.278 20.3779C222.128 22.9612 218.973 25.5412 215.828 28.132C215.631 28.2954 215.538 28.2837 215.365 28.1054C214.56 27.277 213.743 26.462 212.919 25.6529C212.774 25.5104 212.75 25.4312 212.89 25.2595C216.848 20.4237 220.801 15.5812 224.753 10.7404C225.017 10.4179 225.279 10.0962 225.546 9.76953V9.77036Z" fill="white"/>
<path d="M232.033 3.00474C234.566 3.00641 236.828 4.61807 237.669 7.01974C238.502 9.39807 237.728 12.1064 235.78 13.6631C235.614 13.7956 235.528 13.8214 235.358 13.6506C232.705 10.9789 230.046 8.31474 227.38 5.65641C227.217 5.49307 227.22 5.40557 227.358 5.23224C228.468 3.84057 230.211 3.00307 232.033 3.00391L232.033 3.00474Z" fill="white"/>
<path d="M226.635 6.39258C229.299 9.06091 231.952 11.7209 234.617 14.3909C234.062 14.6826 233.434 14.8226 232.794 14.9501C232.361 15.0359 232.094 14.8876 231.799 14.5892C229.955 12.7159 228.094 10.8592 226.231 9.00425C226.074 8.84841 226.026 8.69924 226.051 8.48424C226.138 7.74841 226.303 7.03924 226.635 6.39341V6.39258Z" fill="white"/>
<path d="M227.027 15.9351C227.028 16.1626 226.947 16.291 226.833 16.4043C226.032 17.2051 225.235 18.0101 224.431 18.8068C224.164 19.0718 223.911 19.0701 223.642 18.8068C223.167 18.3418 222.697 17.871 222.233 17.3951C221.967 17.1235 221.963 16.8718 222.227 16.6051C223.03 15.7918 223.837 14.9826 224.648 14.1785C224.902 13.9276 225.158 13.9276 225.415 14.1776C225.898 14.6493 226.371 15.1318 226.848 15.6101C226.954 15.7168 227.023 15.8401 227.027 15.9343V15.9351Z" fill="#0085FF"/>
<path d="M224.034 17.7751C223.987 17.7326 223.947 17.7017 223.912 17.6667C223.736 17.4909 223.568 17.3059 223.382 17.1417C223.252 17.0259 223.278 16.9576 223.391 16.8476C223.894 16.3542 224.393 15.8559 224.884 15.3501C224.999 15.2317 225.067 15.2251 225.178 15.3501C225.336 15.5284 225.508 15.6951 225.682 15.8567C225.783 15.9509 225.812 16.0159 225.697 16.1292C225.179 16.6376 224.67 17.1542 224.157 17.6676C224.122 17.7026 224.083 17.7334 224.034 17.7759V17.7751Z" fill="white"/>
<path d="M257.859 15.7773V16.5508H254.625V19.3281H258.961V20.0898H249.422V19.3281H253.711V16.5508H250.594V11.9219H251.531V15.7773H257.859ZM264.047 12.168V15.8125H261.035V18.1797C262.23 18.1738 263.361 18.1211 264.715 17.8984L264.797 18.6484C263.32 18.9062 262.137 18.9531 260.824 18.9531H260.145V15.0508H263.156V12.9414H260.121V12.168H264.047ZM268.699 11.0312V21.4492H267.82V15.918H266.285V20.9102H265.441V11.2656H266.285V15.1562H267.82V11.0312H268.699ZM274.969 17.582C277.113 17.582 278.402 18.2852 278.402 19.5039C278.402 20.7344 277.113 21.4375 274.969 21.4492C272.824 21.4375 271.512 20.7344 271.512 19.5039C271.512 18.2852 272.824 17.582 274.969 17.582ZM274.969 18.3086C273.398 18.3203 272.426 18.7539 272.438 19.5039C272.426 20.2539 273.398 20.6992 274.969 20.6992C276.551 20.6992 277.512 20.2539 277.512 19.5039C277.512 18.7539 276.551 18.3203 274.969 18.3086ZM278.309 11.0312V13.6562H279.879V14.4414H278.309V17.3008H277.395V11.0312H278.309ZM271.512 11.6875V13.2812H274.547V11.6875H275.461V16.4922H270.609V11.6875H271.512ZM271.512 15.7422H274.547V14.0078H271.512V15.7422Z" fill="#0085FF"/>
<path d="M393.801 31.9952C393.162 31.7568 392.886 31.2902 392.937 30.616C392.945 30.5227 392.927 30.4268 392.941 30.3352C392.972 30.1127 392.907 30.041 392.662 30.0385C391.747 30.031 391.057 29.4543 390.897 28.5885C390.865 28.4168 390.87 28.236 390.87 28.0602C390.869 19.4293 390.869 10.7993 390.869 2.1685C390.869 0.891836 391.152 0.465169 392.304 0.00683594H411.635C411.651 0.0551693 411.692 0.0543359 411.732 0.0643359C412.522 0.261003 413.059 0.921836 413.067 1.73184C413.077 2.71017 413.072 3.68934 413.07 4.66767C413.069 5.011 412.895 5.21767 412.615 5.22434C412.323 5.23184 412.137 5.01684 412.137 4.6585C412.134 3.73184 412.137 2.80517 412.135 1.8785C412.133 1.25684 411.817 0.943503 411.192 0.943503C405.039 0.942669 398.887 0.942669 392.735 0.943503C392.129 0.943503 391.806 1.26184 391.806 1.86017C391.804 4.74434 391.807 7.6285 391.8 10.5127C391.8 10.7235 391.863 10.7652 392.059 10.7643C393.514 10.756 394.969 10.7593 396.424 10.761C396.547 10.761 396.672 10.7477 396.793 10.7968C397.014 10.8868 397.125 11.0518 397.098 11.2843C397.072 11.5143 396.932 11.661 396.694 11.691C396.602 11.7027 396.507 11.6968 396.414 11.6968C394.97 11.6968 393.525 11.701 392.081 11.6927C391.872 11.691 391.8 11.7285 391.8 11.9585C391.807 17.3727 391.805 22.7868 391.807 28.2018C391.807 28.7793 392.133 29.1027 392.722 29.1085C393.417 29.1152 394.114 29.1102 394.811 29.1102C400.225 29.1102 405.639 29.1102 411.053 29.1102C411.862 29.1102 412.137 28.836 412.137 28.026C412.137 22.6952 412.135 17.3635 412.142 12.0327C412.142 11.7677 412.093 11.6893 411.81 11.6902C407.612 11.701 403.413 11.6977 399.215 11.6977C399.152 11.6977 399.09 11.6977 399.028 11.6977C398.583 11.6968 398.357 11.5402 398.358 11.2327C398.359 10.921 398.586 10.761 399.03 10.761C403.291 10.761 407.552 10.7577 411.812 10.7685C412.092 10.7685 412.148 10.696 412.144 10.4285C412.127 9.32517 412.137 8.221 412.137 7.11767C412.137 6.69767 412.299 6.486 412.612 6.49017C412.917 6.4935 413.072 6.69684 413.072 7.09934C413.072 14.1377 413.073 21.1768 413.072 28.2152C413.072 29.276 412.342 30.026 411.28 30.0385C411.037 30.0418 410.97 30.1127 411.002 30.3352C411.015 30.4268 410.997 30.5227 411.005 30.616C411.055 31.2885 410.783 31.7577 410.142 31.9952H408.333C407.671 31.8327 407.392 31.4918 407.37 30.7835C407.35 30.136 407.44 30.1543 406.707 30.1543C403.551 30.1543 400.395 30.1543 397.238 30.1543C397.134 30.1543 397.03 30.161 396.927 30.1543C396.672 30.136 396.562 30.2502 396.58 30.5027C396.587 30.606 396.582 30.711 396.576 30.8143C396.537 31.5018 396.265 31.8352 395.612 31.9952H393.803H393.801Z" fill="#747474"/>
<path d="M392.99 16.2812C392.99 15.5837 392.986 14.8862 392.99 14.1887C392.995 13.3995 393.548 12.817 394.293 12.8087C395.049 12.8004 395.624 13.3512 395.633 14.147C395.65 15.5937 395.65 17.0412 395.633 18.4879C395.624 19.2837 395.046 19.8312 394.288 19.8212C393.545 19.8104 392.995 19.2262 392.99 18.4362C392.986 17.7179 392.99 16.9995 392.99 16.2812H392.99Z" fill="#747474"/>
<path d="M392.99 5.81674C392.99 5.11924 392.986 4.42174 392.99 3.72424C392.995 2.94091 393.553 2.35341 394.297 2.34007C395.02 2.32674 395.621 2.89257 395.631 3.65924C395.65 5.12674 395.651 6.59507 395.63 8.06341C395.619 8.82591 395.005 9.39091 394.284 9.37091C393.552 9.35007 392.996 8.76841 392.991 8.00424C392.985 7.27507 392.99 6.54674 392.99 5.81757L392.99 5.81674Z" fill="#747474"/>
<path d="M394.706 30.047C394.758 30.047 394.81 30.047 394.861 30.047C395.6 30.047 395.64 30.0962 395.537 30.8437C395.516 30.9954 395.446 31.0612 395.294 31.0595C394.9 31.0554 394.507 31.0579 394.113 31.0579C394.04 31.0579 393.969 31.0554 393.919 30.9862C393.88 30.9329 393.849 30.1512 393.885 30.097C393.928 30.0337 393.994 30.0487 394.053 30.0479C394.27 30.0462 394.488 30.0479 394.705 30.0479L394.706 30.047Z" fill="white"/>
<path d="M409.229 31.0575C409.209 31.0575 409.188 31.0575 409.167 31.0575C408.291 31.0408 408.416 31.2159 408.399 30.2459C408.395 30.0709 408.466 30.0408 408.617 30.0442C409.031 30.0517 409.445 30.0533 409.859 30.0442C410.023 30.04 410.072 30.0925 410.069 30.2559C410.049 31.23 410.189 31.0392 409.229 31.0592V31.0575Z" fill="white"/>
<path d="M393.925 16.318C393.925 15.6313 393.923 14.9447 393.925 14.258C393.925 13.9113 394.063 13.7388 394.325 13.7463C394.571 13.753 394.702 13.918 394.702 14.2522C394.705 15.6255 394.705 16.9988 394.702 18.3722C394.702 18.723 394.562 18.8913 394.3 18.883C394.048 18.8747 393.925 18.7138 393.925 18.378C393.923 17.6913 393.925 17.0047 393.925 16.318Z" fill="white"/>
<path d="M393.925 5.83763C393.925 5.15097 393.923 4.46347 393.925 3.7768C393.926 3.46513 394.076 3.27847 394.315 3.2793C394.557 3.2793 394.702 3.45597 394.702 3.78013C394.706 5.1643 394.706 6.54847 394.702 7.93263C394.702 8.25013 394.55 8.43347 394.312 8.4318C394.073 8.43013 393.926 8.2443 393.925 7.93013C393.922 7.23263 393.925 6.53513 393.925 5.83847V5.83763Z" fill="white"/>
<path d="M435.27 11.043V17.3594H434.391V14.5352H432.891V16.9727H432.035V11.2422H432.891V13.7617H434.391V11.043H435.27ZM431.824 17.5117C433.969 17.5117 435.328 18.25 435.328 19.4805C435.328 20.6992 433.969 21.4258 431.824 21.4258C429.668 21.4258 428.32 20.6992 428.332 19.4805C428.32 18.25 429.668 17.5117 431.824 17.5117ZM431.824 18.25C430.23 18.25 429.234 18.707 429.246 19.4805C429.234 20.2305 430.23 20.6875 431.824 20.6875C433.406 20.6875 434.402 20.2305 434.414 19.4805C434.402 18.707 433.406 18.25 431.824 18.25ZM427.863 11.875V15.6133C428.965 15.6074 430.025 15.5488 431.309 15.2969L431.391 16.0586C429.996 16.3281 428.848 16.3867 427.605 16.3867H426.949V11.875H427.863ZM440.32 13.0117C440.32 14.3711 441.34 15.5898 442.875 16.0938L442.441 16.8203C441.24 16.4277 440.332 15.5957 439.887 14.5469C439.436 15.7422 438.475 16.6738 437.227 17.125L436.758 16.3867C438.316 15.8594 439.406 14.5117 439.418 13.0117V12.5664H437.039V11.8047H442.664V12.5664H440.32V13.0117ZM444.938 11.0312V13.6914H446.508V14.4648H444.938V17.3242H444.023V11.0312H444.938ZM441.598 17.6055C443.742 17.6055 445.031 18.3086 445.031 19.5039C445.031 20.7227 443.742 21.4258 441.598 21.4258C439.453 21.4258 438.141 20.7227 438.141 19.5039C438.141 18.3086 439.453 17.6055 441.598 17.6055ZM441.598 18.3438C440.027 18.3438 439.055 18.7773 439.066 19.5039C439.055 20.2539 440.027 20.6875 441.598 20.6875C443.18 20.6875 444.141 20.2539 444.141 19.5039C444.141 18.7773 443.18 18.3438 441.598 18.3438ZM455.52 12.0859V13.1289C455.508 14.4062 455.508 15.8359 455.133 17.9336L454.195 17.8281C454.594 15.8359 454.594 14.3711 454.594 13.1289V12.8477H448.172V12.0859H455.52ZM456.656 19.2109V19.9727H447.164V19.2109H450.891V15.4844H451.793V19.2109H456.656Z" fill="#747474"/>
<g clip-path="url(#clip0_133_2249)">
<path d="M61.8639 55.6562C61.8639 60.4879 61.8664 65.3196 61.8572 70.1512C61.8572 70.4179 61.9081 70.5221 62.1931 70.4921C62.4606 70.4637 62.7339 70.4804 63.0047 70.4879C63.3122 70.4971 63.5047 70.6896 63.5022 70.9679C63.4997 71.2446 63.3072 71.4387 62.9956 71.4404C61.9131 71.4462 60.8297 71.4462 59.7472 71.4404C59.4406 71.4387 59.2439 71.2362 59.2439 70.9629C59.2439 70.6896 59.4431 70.4962 59.7497 70.4887C60.0622 70.4812 60.3747 70.4804 60.6864 70.4887C60.8314 70.4929 60.9039 70.4537 60.8856 70.2987C60.8797 70.2479 60.8847 70.1946 60.8847 70.1429C60.8847 66.1321 60.8814 62.1212 60.8922 58.1104C60.8922 57.8321 60.8222 57.7746 60.5514 57.7746C52.1814 57.7821 43.8106 57.7829 35.4406 57.7737C35.1539 57.7737 35.1081 57.8554 35.1081 58.1171C35.1164 62.1279 35.1164 66.1387 35.1081 70.1496C35.1081 70.4171 35.1597 70.5229 35.4456 70.4912C35.7031 70.4629 35.9656 70.4812 36.2256 70.4871C36.5547 70.4946 36.7589 70.6846 36.7556 70.9696C36.7522 71.2421 36.5539 71.4387 36.2447 71.4404C35.1622 71.4462 34.0789 71.4462 32.9964 71.4404C32.6872 71.4387 32.4964 71.2396 32.4981 70.9612C32.4997 70.6829 32.6922 70.4962 33.0031 70.4887C33.3156 70.4812 33.6281 70.4804 33.9397 70.4887C34.0847 70.4929 34.1547 70.4537 34.1372 70.2987C34.1289 70.2271 34.1356 70.1537 34.1356 70.0804C34.1356 60.4796 34.1356 50.8787 34.1356 41.2779C34.1356 41.1846 34.1314 41.0904 34.1372 40.9971C34.1564 40.6887 34.3439 40.4971 34.6214 40.4962C34.9006 40.4954 35.0947 40.6804 35.1097 40.9929C35.1239 41.2937 35.1139 41.5954 35.1139 41.8971C35.1139 42.2504 35.1272 42.6046 35.1089 42.9562C35.0981 43.1579 35.1689 43.2179 35.3539 43.1879C35.3947 43.1812 35.4372 43.1871 35.4789 43.1871C43.8281 43.1871 52.1781 43.1854 60.5272 43.1946C60.8339 43.1946 60.9064 43.1187 60.8922 42.8229C60.8656 42.2737 60.8839 41.7221 60.8847 41.1712C60.8847 40.7062 61.0472 40.4896 61.3847 40.4962C61.7097 40.5021 61.8631 40.7129 61.8631 41.1604C61.8631 45.9921 61.8631 50.8237 61.8631 55.6554L61.8639 55.6562Z" fill="#747474"/>
<path d="M41.3258 44.1638C41.835 44.1638 42.3442 44.1696 42.8533 44.1604C43.015 44.1579 43.0658 44.2046 43.0642 44.3696C43.055 45.0438 43.0533 45.7179 43.0642 46.3921C43.0675 46.5838 42.99 46.6088 42.8267 46.6079C41.8183 46.6021 40.81 46.5996 39.8025 46.6096C39.605 46.6113 39.5592 46.5529 39.5625 46.3654C39.5733 45.7121 39.5783 45.0579 39.5608 44.4054C39.555 44.1813 39.6425 44.1571 39.8283 44.1604C40.3267 44.1704 40.8258 44.1638 41.325 44.1638H41.3258Z" fill="white"/>
<path d="M54.6865 46.6042C54.1874 46.6042 53.6882 46.5976 53.1899 46.6076C53.0132 46.6109 52.9315 46.5834 52.9357 46.3759C52.9499 45.7126 52.9474 45.0484 52.9365 44.3842C52.934 44.2059 52.9865 44.1576 53.1632 44.1592C54.1815 44.1676 55.2007 44.1676 56.219 44.1592C56.404 44.1576 56.439 44.2217 56.4374 44.3892C56.429 45.0534 56.4282 45.7167 56.4374 46.3809C56.4399 46.5542 56.394 46.6134 56.2132 46.6092C55.704 46.5976 55.1949 46.6051 54.6857 46.6051L54.6865 46.6042Z" fill="white"/>
<path d="M41.3293 47.5623C41.8276 47.5623 42.3268 47.5673 42.8251 47.5598C42.9843 47.5573 43.0701 47.5756 43.0659 47.7723C43.0543 48.4456 43.0559 49.1198 43.0651 49.7931C43.0676 49.9573 43.0184 50.0031 42.8551 50.0023C41.8268 49.9956 40.7984 49.9956 39.7701 50.0023C39.6043 50.0031 39.5618 49.9539 39.5634 49.7931C39.5718 49.1198 39.5743 48.4456 39.5626 47.7723C39.5593 47.5781 39.6418 47.5581 39.8018 47.5598C40.3109 47.5673 40.8193 47.5623 41.3284 47.5623H41.3293Z" fill="white"/>
<path d="M54.6839 47.563C55.1931 47.563 55.7023 47.5705 56.2106 47.5588C56.3873 47.5547 56.4389 47.608 56.4364 47.7847C56.4273 48.458 56.4289 49.1322 56.4356 49.8063C56.4373 49.9497 56.4039 50.0038 56.2481 50.003C55.2098 49.9963 54.1706 49.9972 53.1323 50.003C52.9873 50.003 52.9339 49.9672 52.9356 49.813C52.9431 49.1288 52.9448 48.4447 52.9356 47.7605C52.9331 47.583 53.0081 47.5597 53.1573 47.5613C53.6664 47.568 54.1748 47.5638 54.6839 47.5638V47.563Z" fill="white"/>
<path d="M36.8456 53.4127C36.3356 53.4127 35.8256 53.406 35.3164 53.4169C35.1489 53.4202 35.1089 53.3669 35.1114 53.2069C35.1198 52.5319 35.1198 51.8569 35.1114 51.1819C35.1089 51.0194 35.1531 50.9719 35.3181 50.9727C36.3381 50.9802 37.3573 50.9802 38.3773 50.9727C38.5556 50.971 38.6064 51.0235 38.6039 51.1994C38.5948 51.8635 38.5939 52.5285 38.6039 53.1935C38.6064 53.3735 38.5506 53.421 38.3756 53.4169C37.8656 53.406 37.3556 53.4127 36.8464 53.4127H36.8456Z" fill="white"/>
<path d="M41.3091 53.4126C40.8099 53.4126 40.3108 53.4059 39.8116 53.4159C39.6374 53.4192 39.5558 53.3992 39.5608 53.1876C39.5766 52.5234 39.5724 51.8592 39.5624 51.1951C39.5599 51.0192 39.6099 50.9701 39.7866 50.9717C40.8058 50.9801 41.8249 50.9801 42.8441 50.9717C43.0274 50.9701 43.0658 51.0317 43.0633 51.2009C43.0541 51.8651 43.0533 52.5292 43.0633 53.1942C43.0658 53.3726 43.0124 53.4201 42.8374 53.4167C42.3283 53.4059 41.8183 53.4126 41.3083 53.4126H41.3091Z" fill="white"/>
<path d="M45.7817 53.4127C45.2817 53.4127 44.7817 53.4044 44.2825 53.4169C44.0884 53.4219 44.0109 53.3827 44.0159 53.166C44.0309 52.5119 44.0267 51.8569 44.0175 51.2027C44.015 51.0302 44.0592 50.971 44.2417 50.9727C45.2617 50.981 46.2825 50.9802 47.3025 50.9727C47.4609 50.9719 47.5159 51.0085 47.5142 51.1769C47.5042 51.8519 47.5025 52.5277 47.5142 53.2027C47.5175 53.3944 47.4417 53.4185 47.28 53.4152C46.7809 53.4069 46.2809 53.4119 45.7809 53.4119L45.7817 53.4127Z" fill="white"/>
<path d="M50.2498 50.9762C50.7389 50.9762 51.2289 50.9846 51.7173 50.9721C51.9123 50.9671 51.9889 51.0071 51.9839 51.2237C51.9689 51.8779 51.9731 52.5329 51.9823 53.1871C51.9848 53.3596 51.9406 53.4179 51.7589 53.4162C50.7389 53.4079 49.7181 53.4087 48.6981 53.4154C48.5414 53.4162 48.4839 53.3821 48.4864 53.2121C48.4964 52.5371 48.4981 51.8612 48.4864 51.1862C48.4831 50.9962 48.5564 50.9696 48.7198 50.9721C49.2298 50.9812 49.7398 50.9754 50.2498 50.9754V50.9762Z" fill="white"/>
<path d="M54.6849 50.9761C55.1949 50.9761 55.7041 50.9836 56.2141 50.9719C56.3899 50.9677 56.4408 51.0177 56.4383 51.1944C56.4283 51.8586 56.4291 52.5227 56.4383 53.1869C56.4408 53.3544 56.4066 53.4177 56.2216 53.4161C55.2024 53.4069 54.1833 53.4077 53.1641 53.4161C52.9908 53.4177 52.9349 53.3736 52.9374 53.1944C52.9483 52.5302 52.9516 51.8652 52.9358 51.2019C52.9308 50.9919 53.0133 50.9694 53.1883 50.9727C53.6874 50.9827 54.1866 50.9761 54.6858 50.9761H54.6849Z" fill="white"/>
<path d="M59.1216 53.4125C58.6224 53.4125 58.1224 53.405 57.6232 53.4167C57.4449 53.4209 57.3941 53.3675 57.3966 53.1909C57.4066 52.5267 57.4066 51.8617 57.3966 51.1967C57.3941 51.0175 57.4499 50.9709 57.6257 50.9717C58.6457 50.9792 59.6649 50.9792 60.6849 50.9717C60.8532 50.9701 60.8916 51.0242 60.8899 51.1834C60.8816 51.8584 60.8816 52.5334 60.8899 53.2084C60.8924 53.3717 60.8474 53.4192 60.6824 53.4167C60.1624 53.4067 59.6416 53.4125 59.1216 53.4125Z" fill="white"/>
<path d="M41.3176 56.8213C40.8085 56.8213 40.3001 56.8146 39.791 56.8246C39.6176 56.828 39.5593 56.7805 39.5626 56.6005C39.5726 55.9371 39.571 55.2738 39.5635 54.6105C39.5618 54.4471 39.5901 54.3763 39.7793 54.378C40.7968 54.3871 41.8151 54.3855 42.8326 54.3788C43.0018 54.378 43.0676 54.4138 43.0643 54.5988C43.0535 55.2621 43.0518 55.9255 43.0651 56.5888C43.0693 56.793 42.9943 56.828 42.8135 56.8238C42.3151 56.813 41.8168 56.8205 41.3176 56.8205V56.8213Z" fill="white"/>
<path d="M54.6932 56.8204C54.184 56.8204 53.6757 56.8146 53.1665 56.8238C52.9948 56.8271 52.9323 56.7821 52.9357 56.6004C52.9457 55.9371 52.9448 55.2738 52.9357 54.6104C52.9332 54.4421 52.9707 54.3771 53.1557 54.3779C54.184 54.3863 55.2123 54.3846 56.2398 54.3796C56.384 54.3796 56.4382 54.4121 56.4357 54.5679C56.4273 55.2521 56.4265 55.9363 56.4357 56.6204C56.4382 56.7921 56.374 56.8263 56.219 56.8238C55.7098 56.8154 55.2015 56.8204 54.6923 56.8204H54.6932Z" fill="white"/>
<path d="M36.8664 46.6042C36.3573 46.6042 35.8473 46.5967 35.3381 46.6084C35.1581 46.6125 35.1089 46.555 35.1114 46.38C35.1206 45.7059 35.1189 45.0317 35.1123 44.3567C35.1106 44.2134 35.1456 44.1584 35.3006 44.1592C36.3398 44.1659 37.3798 44.1642 38.4189 44.1609C38.5506 44.1609 38.6039 44.2 38.6031 44.3384C38.5981 45.0334 38.5973 45.7284 38.6031 46.4234C38.6048 46.585 38.5298 46.6075 38.3939 46.6067C37.8848 46.6009 37.3756 46.6042 36.8656 46.6042H36.8664Z" fill="white"/>
<path d="M45.7743 46.6044C45.2643 46.6044 44.7552 46.5969 44.2452 46.6085C44.0643 46.6127 44.0152 46.5519 44.0177 46.3777C44.026 45.7135 44.0277 45.0494 44.0177 44.3852C44.0152 44.2019 44.0793 44.1594 44.251 44.1602C45.2702 44.1669 46.2893 44.1677 47.3085 44.1602C47.4777 44.1585 47.5143 44.216 47.5127 44.3727C47.5052 45.0369 47.5027 45.7019 47.5135 46.3652C47.5168 46.5544 47.4677 46.6152 47.271 46.6094C46.7718 46.5952 46.2727 46.6044 45.7735 46.6044H45.7743Z" fill="white"/>
<path d="M50.2178 44.1637C50.717 44.1637 51.2162 44.1712 51.7153 44.1596C51.9103 44.1546 51.9887 44.1962 51.9837 44.4137C51.9687 45.0671 51.9737 45.7212 51.9812 46.3754C51.9837 46.5462 51.9403 46.6104 51.7562 46.6087C50.737 46.6004 49.7178 46.6012 48.6987 46.6087C48.5362 46.6096 48.4845 46.5637 48.4862 46.3996C48.4945 45.7246 48.497 45.0504 48.4845 44.3754C48.4812 44.1854 48.5537 44.1571 48.7187 44.1604C49.2178 44.1704 49.717 44.1637 50.2162 44.1637H50.2178Z" fill="white"/>
<path d="M59.184 44.1636C59.6832 44.1636 60.1824 44.1703 60.6807 44.1603C60.8465 44.157 60.8899 44.2111 60.8882 44.3711C60.8799 45.0453 60.8807 45.7195 60.8882 46.3936C60.8899 46.5503 60.8499 46.6095 60.6807 46.6086C59.6515 46.6011 58.6224 46.602 57.594 46.6086C57.4424 46.6095 57.3965 46.5578 57.3982 46.412C57.4032 45.727 57.4057 45.0428 57.3965 44.3578C57.394 44.1745 57.4824 44.1611 57.6257 44.162C58.1457 44.167 58.6649 44.1636 59.1849 44.1636H59.184Z" fill="white"/>
<path d="M36.847 47.5627C37.3562 47.5627 37.8654 47.5702 38.3737 47.5586C38.552 47.5544 38.6045 47.6119 38.602 47.7869C38.5937 48.4502 38.5929 49.1136 38.602 49.7769C38.6045 49.9569 38.5454 50.0036 38.3712 50.0019C37.3537 49.9944 36.3354 49.9944 35.3179 50.0019C35.1537 50.0027 35.107 49.9569 35.1095 49.7927C35.1187 49.1294 35.1195 48.4661 35.1095 47.8027C35.1062 47.6152 35.1545 47.5519 35.3512 47.5569C35.8495 47.5711 36.3479 47.5619 36.847 47.5619V47.5627Z" fill="white"/>
<path d="M45.765 49.9985C45.2658 49.9985 44.7675 49.991 44.2683 50.0018C44.0866 50.006 44.0116 49.9685 44.0158 49.7651C44.0291 49.1118 44.0275 48.4585 44.0166 47.8052C44.0133 47.6177 44.0625 47.556 44.2591 47.5576C45.2675 47.5676 46.2758 47.566 47.2833 47.5585C47.4575 47.5568 47.515 47.6035 47.5125 47.7826C47.5025 48.446 47.4991 49.1101 47.5141 49.7743C47.5191 49.986 47.4333 50.0051 47.2608 50.0018C46.7625 49.9926 46.2633 49.9985 45.7641 49.9985H45.765Z" fill="white"/>
<path d="M50.2237 47.562C50.7329 47.562 51.242 47.5687 51.7512 47.5578C51.9279 47.5545 51.9837 47.6078 51.9812 47.7853C51.972 48.4487 51.9712 49.1128 51.9812 49.777C51.9837 49.9603 51.9204 50.0028 51.7487 50.0012C50.7304 49.9945 49.712 49.9945 48.6929 50.0012C48.5279 50.002 48.4829 49.9562 48.4845 49.7928C48.4937 49.1295 48.4945 48.4653 48.4845 47.8012C48.4812 47.6128 48.5295 47.5512 48.7262 47.557C49.2245 47.5712 49.7237 47.562 50.2229 47.562H50.2237Z" fill="white"/>
<path d="M59.1532 49.9985C58.6441 49.9985 58.1349 49.9918 57.6266 50.0018C57.4507 50.0051 57.3941 49.9543 57.3966 49.7752C57.4066 49.1118 57.4057 48.4485 57.3966 47.7851C57.3941 47.6085 57.4499 47.5568 57.6266 47.5585C58.6341 47.566 59.6416 47.5676 60.6491 47.5576C60.8466 47.556 60.8924 47.6176 60.8891 47.8043C60.8791 48.4676 60.8799 49.131 60.8891 49.7943C60.8916 49.9593 60.8424 50.0051 60.6791 50.0018C60.1699 49.9918 59.6616 49.9985 59.1524 49.9985H59.1532Z" fill="white"/>
<path d="M36.8714 54.3824C37.3714 54.3824 37.8706 54.3891 38.3706 54.3791C38.5448 54.3758 38.6064 54.4249 38.6039 54.6058C38.5948 55.2708 38.5948 55.9358 38.6039 56.6008C38.6064 56.7849 38.5389 56.8257 38.3681 56.8249C37.3581 56.8182 36.3489 56.8174 35.3389 56.8249C35.1581 56.8266 35.1089 56.7699 35.1114 56.5949C35.1206 55.9299 35.1214 55.2649 35.1114 54.6008C35.1089 54.4183 35.1706 54.3758 35.3423 54.3791C35.8523 54.3891 36.3623 54.3824 36.8723 54.3824H36.8714Z" fill="white"/>
<path d="M45.766 56.8206C45.2677 56.8206 44.7685 56.8139 44.2702 56.8239C44.0869 56.8281 44.0144 56.7839 44.0177 56.5847C44.0294 55.9214 44.0269 55.2572 44.0194 54.5939C44.0177 54.4322 44.0677 54.3781 44.2319 54.3789C45.2602 54.3847 46.2894 54.3847 47.3177 54.3789C47.4635 54.3789 47.516 54.4122 47.5144 54.5681C47.506 55.2522 47.5052 55.9372 47.5144 56.6214C47.5169 56.7956 47.446 56.8256 47.2935 56.8231C46.7844 56.8156 46.2752 56.8206 45.766 56.8206Z" fill="white"/>
<path d="M50.2488 56.8204C49.7505 56.8204 49.2513 56.8129 48.753 56.8237C48.5622 56.8279 48.4788 56.7929 48.4847 56.5729C48.5005 55.9204 48.4988 55.2662 48.4847 54.6137C48.4805 54.4137 48.5472 54.3762 48.7313 54.3779C49.7288 54.3862 50.7263 54.3879 51.7238 54.377C51.9347 54.3745 51.9872 54.4404 51.983 54.642C51.9713 55.2845 51.9697 55.9279 51.983 56.5704C51.988 56.7862 51.9097 56.8295 51.713 56.8245C51.2247 56.812 50.7363 56.8204 50.248 56.8204H50.2488Z" fill="white"/>
<path d="M59.1574 54.3821C59.6466 54.3821 60.1357 54.3904 60.6249 54.3779C60.8174 54.3729 60.8966 54.4104 60.8916 54.6279C60.8757 55.2821 60.8807 55.9371 60.8891 56.5913C60.8916 56.7621 60.8499 56.8254 60.6649 56.8238C59.6549 56.8154 58.6457 56.8163 57.6357 56.8229C57.4691 56.8238 57.3941 56.7896 57.3966 56.6021C57.4066 55.9371 57.4057 55.2721 57.3966 54.6071C57.3941 54.4296 57.4491 54.3738 57.6266 54.3771C58.1366 54.3871 58.6466 54.3804 59.1566 54.3804L59.1574 54.3821Z" fill="white"/>
</g>
<path d="M81.0703 51.4648V52.2148H77.7656C77.7773 53.3984 79.5469 54.3359 81.3867 54.5469L81.0469 55.2734C79.3418 55.0566 77.7422 54.2949 77.168 53.1289C76.5996 54.2949 75.0059 55.0566 73.3008 55.2734L72.9609 54.5469C74.7891 54.3359 76.5469 53.3984 76.5703 52.2148H73.2891V51.4648H81.0703ZM81.9492 56.2695V57.0312H72.4219V56.2695H76.7109V54.6875H77.6133V56.2695H81.9492ZM80.7422 58.0625V61.4492H79.8164V58.8125H73.4766V58.0625H80.7422ZM91.0312 51.7109V52.625C91.0312 53.6152 91.0312 54.6875 90.7383 56.1875H92.2852V56.9492H87.9844V61.4727H87.0586V56.9492H82.793V56.1875H89.8008C90.1172 54.6875 90.1172 53.5918 90.1172 52.625V52.4727H83.9883V51.7109H91.0312ZM96.6914 53.0117C96.6914 54.3711 97.7109 55.5898 99.2461 56.0938L98.8125 56.8203C97.6113 56.4277 96.7031 55.5957 96.2578 54.5469C95.8066 55.7422 94.8457 56.6738 93.5977 57.125L93.1289 56.3867C94.6875 55.8594 95.7773 54.5117 95.7891 53.0117V52.5664H93.4102V51.8047H99.0352V52.5664H96.6914V53.0117ZM101.309 51.0312V53.6914H102.879V54.4648H101.309V57.3242H100.395V51.0312H101.309ZM97.9688 57.6055C100.113 57.6055 101.402 58.3086 101.402 59.5039C101.402 60.7227 100.113 61.4258 97.9688 61.4258C95.8242 61.4258 94.5117 60.7227 94.5117 59.5039C94.5117 58.3086 95.8242 57.6055 97.9688 57.6055ZM97.9688 58.3438C96.3984 58.3438 95.4258 58.7773 95.4375 59.5039C95.4258 60.2539 96.3984 60.6875 97.9688 60.6875C99.5508 60.6875 100.512 60.2539 100.512 59.5039C100.512 58.7773 99.5508 58.3438 97.9688 58.3438Z" fill="#747474"/>
<path d="M224.981 45.8527C229.449 45.8527 233.917 45.8527 238.384 45.8527C239.405 45.8527 239.981 46.3618 240.124 47.3693C240.394 49.2593 240.398 51.1577 240.34 53.0593C240.299 54.4193 240.198 55.7768 240.132 57.136C240.079 58.2252 239.346 59.4477 237.721 59.4418C231.279 59.421 224.837 59.4335 218.395 59.4335C216.338 59.4335 214.28 59.4085 212.224 59.441C210.604 59.4668 209.865 58.2318 209.802 57.1118C209.676 54.871 209.529 52.6318 209.578 50.3868C209.6 49.3593 209.659 48.3327 209.819 47.3143C209.931 46.5927 210.42 45.8352 211.514 45.8418C216.003 45.8677 220.492 45.8527 224.98 45.8527H224.981Z" fill="#747474"/>
<path d="M232.639 61.4305C232.892 61.4255 233.058 61.5889 233.081 61.8864C233.145 62.6989 233.334 63.4772 233.705 64.2072C233.889 64.568 234.117 64.9005 234.379 65.2089C234.605 65.4739 234.611 65.708 234.407 65.8914C234.204 66.0739 233.952 66.0414 233.733 65.788C232.772 64.683 232.319 63.3747 232.213 61.933C232.19 61.6339 232.374 61.4355 232.639 61.4297V61.4305Z" fill="#747474"/>
<path d="M217.727 61.9384C217.613 63.3676 217.169 64.6676 216.222 65.7692C215.989 66.0409 215.734 66.0801 215.526 65.8892C215.324 65.7034 215.33 65.4734 215.559 65.2059C216.378 64.2484 216.755 63.1201 216.857 61.8826C216.881 61.5867 217.049 61.4234 217.303 61.4309C217.566 61.4384 217.732 61.6367 217.727 61.9384Z" fill="#747474"/>
<path d="M228.268 62.3023C228.268 62.1573 228.263 62.0115 228.268 61.8665C228.28 61.594 228.429 61.4448 228.698 61.434C228.952 61.424 229.135 61.6106 229.135 61.8965C229.135 62.3856 229.154 62.8698 229.257 63.3515C229.408 64.0606 229.677 64.7148 230.102 65.304C230.318 65.6023 230.303 65.844 230.068 66.009C229.844 66.1665 229.601 66.0948 229.388 65.7998C228.632 64.7573 228.306 63.5756 228.267 62.3031L228.268 62.3023Z" fill="#747474"/>
<path d="M221.67 62.3023C221.628 63.5973 221.288 64.7965 220.511 65.8498C220.293 66.1457 219.938 66.164 219.758 65.8982C219.638 65.7215 219.654 65.5448 219.778 65.3773C220.532 64.3607 220.825 63.2082 220.799 61.9573C220.793 61.6207 220.962 61.4298 221.237 61.4307C221.508 61.4307 221.662 61.6165 221.67 61.959C221.673 62.0732 221.67 62.1873 221.67 62.3015V62.3023Z" fill="#747474"/>
<path d="M224.532 63.7417C224.532 63.1501 224.531 62.5576 224.532 61.9659C224.534 61.6234 224.687 61.4359 224.96 61.4317C225.237 61.4267 225.402 61.6134 225.403 61.9509C225.406 63.1559 225.406 64.3601 225.403 65.5651C225.403 65.9059 225.241 66.0867 224.96 66.0826C224.684 66.0784 224.534 65.8951 224.532 65.5492C224.53 64.9467 224.532 64.3442 224.532 63.7426V63.7417Z" fill="#747474"/>
<path d="M225.001 46.725C229.458 46.725 233.916 46.7333 238.373 46.7158C239.015 46.7133 239.188 47.0408 239.255 47.4892C239.531 49.3367 239.522 51.195 239.468 53.0542C239.428 54.4142 239.342 55.7725 239.252 57.13C239.192 58.04 238.669 58.5533 237.756 58.5592C237.288 58.5625 237.054 58.3356 237.054 57.8783C237.054 57.3067 237.059 56.7358 237.053 56.1642C237.043 55.2792 236.443 54.6717 235.563 54.6717C228.498 54.6692 221.432 54.6683 214.367 54.6717C213.488 54.6717 212.889 55.2825 212.882 56.1683C212.876 56.885 212.874 57.6025 212.885 58.3192C212.888 58.51 212.838 58.5808 212.643 58.5633C212.457 58.5467 212.268 58.5633 212.082 58.5592C211.291 58.5383 210.749 58.04 210.694 57.2517C210.506 54.5358 210.341 51.8192 210.504 49.0958C210.538 48.5258 210.596 47.9575 210.693 47.3942C210.775 46.915 211.01 46.7258 211.503 46.7258C216.003 46.7258 220.501 46.7258 225 46.7258L225.001 46.725Z" fill="white"/>
<path d="M224.968 58.5604C221.342 58.5604 217.716 58.5571 214.09 58.5671C213.815 58.5671 213.739 58.5029 213.749 58.2254C213.771 57.5612 213.754 56.8962 213.757 56.2312C213.759 55.7471 213.957 55.5446 214.436 55.5446C221.46 55.5437 228.483 55.5437 235.507 55.5446C235.983 55.5446 236.181 55.7496 236.184 56.2346C236.186 56.9096 236.172 57.5854 236.191 58.2604C236.199 58.5137 236.118 58.5662 235.879 58.5654C232.242 58.5579 228.606 58.5604 224.97 58.5604H224.968Z" fill="white"/>
<path d="M224.934 49.7361C222.961 49.7361 220.987 49.7361 219.014 49.7377C218.832 49.7377 218.661 49.7311 218.536 49.5727C218.331 49.3119 218.468 48.9402 218.802 48.8752C218.903 48.8552 219.009 48.8644 219.113 48.8644C223.018 48.8644 226.923 48.8644 230.828 48.8644C230.88 48.8644 230.932 48.8627 230.984 48.8644C231.305 48.8752 231.512 49.0594 231.499 49.3219C231.487 49.5727 231.289 49.7361 230.977 49.7361C228.962 49.7377 226.947 49.7369 224.933 49.7369L224.934 49.7361Z" fill="#747474"/>
<path d="M236.137 49.3054C236.136 49.6354 235.868 49.9004 235.541 49.8946C235.233 49.8888 234.966 49.6238 234.957 49.3163C234.948 48.9946 235.217 48.7213 235.546 48.7188C235.88 48.7154 236.138 48.9721 236.136 49.3063L236.137 49.3054Z" fill="#747474"/>
<path d="M258.352 51.0312V61.4492H257.461V51.0312H258.352ZM256.254 51.2539V60.9219H255.375V55.8594H254.039C253.939 57.8867 253.078 59.1523 251.789 59.1523C250.43 59.1523 249.551 57.7461 249.551 55.5312C249.551 53.3164 250.43 51.9102 251.789 51.9102C253.055 51.9102 253.91 53.1348 254.027 55.0977H255.375V51.2539H256.254ZM251.789 52.7773C250.945 52.7773 250.406 53.832 250.418 55.5312C250.406 57.2188 250.945 58.2852 251.789 58.2734C252.633 58.2852 253.172 57.2188 253.172 55.5312C253.172 53.832 252.633 52.7773 251.789 52.7773ZM262.594 51.8398C264.012 51.8516 265.031 53.0645 265.184 55.0156H267.516V51.0312H268.43V61.4727H267.516V55.7773H265.195C265.084 57.8164 264.047 59.0938 262.594 59.0938C261.059 59.0938 259.98 57.6875 259.98 55.4727C259.98 53.2578 261.059 51.8516 262.594 51.8398ZM262.594 52.6602C261.562 52.6719 260.859 53.7734 260.859 55.4727C260.859 57.1719 261.562 58.2734 262.594 58.2734C263.613 58.2734 264.328 57.1719 264.328 55.4727C264.328 53.7734 263.613 52.6719 262.594 52.6602ZM275.578 51.875C275.566 54.5703 274.172 56.5859 270.82 57.7109L270.445 56.9727C272.232 56.3867 273.369 55.5605 274.008 54.5352L270.551 54.8281L270.387 54.0664L274.336 53.8789C274.482 53.4863 274.576 53.0703 274.617 52.6367H270.914V51.875H275.578ZM278.801 51.043V58.7773H277.875V55.1328H275.555V54.3594H277.875V51.043H278.801ZM279.094 60.4531V61.2266H272.215V58.0039H273.152V60.4531H279.094Z" fill="#747474"/>
<path d="M401.747 45.003C405.582 45.003 409.417 45.0003 413.251 45.004C414.791 45.0056 415.976 45.886 416.352 47.2927C416.428 47.5759 416.459 47.865 416.459 48.1588C416.457 53.1509 416.458 58.143 416.457 63.1351C416.457 63.5922 416.362 63.6857 415.901 63.6889C415.574 63.6915 415.246 63.7021 414.919 63.6846C414.696 63.673 414.647 63.7592 414.649 63.9668C414.659 64.8784 414.654 65.7905 414.653 66.7025C414.653 67.2008 414.559 67.2257 414.059 67.297C413.113 67.4312 412.429 67.1263 412.014 66.2613C411.688 65.5817 411.153 65.4575 410.429 65.4612C404.431 65.4929 398.434 65.4824 392.436 65.4697C392.125 65.4692 391.947 65.5722 391.781 65.8095C391.493 66.2206 391.176 66.6116 390.883 67.0191C390.748 67.2072 390.585 67.296 390.351 67.288C390.001 67.2759 389.65 67.2886 389.299 67.2838C388.916 67.2785 388.808 67.1675 388.807 66.7749C388.804 65.8628 388.797 64.9508 388.811 64.0392C388.816 63.7761 388.764 63.6582 388.471 63.6831C388.146 63.7105 387.817 63.6942 387.49 63.6878C387.117 63.6804 387.004 63.5716 387.004 63.2059C387.003 58.1435 386.993 53.0816 387.01 48.0193C387.015 46.2971 388.384 45.0162 390.174 45.0051C391.811 44.995 393.448 45.003 395.084 45.003C397.306 45.003 399.527 45.003 401.749 45.003H401.747Z" fill="#747474"/>
<path d="M399.032 62.9616C395.386 62.9616 391.74 62.9574 388.093 62.969C387.789 62.9701 387.708 62.903 387.709 62.5891C387.721 57.8205 387.716 53.0525 387.717 48.2839C387.717 46.6912 388.676 45.7321 390.268 45.7316C396.836 45.7305 403.404 45.7331 409.972 45.7236C410.279 45.7236 410.357 45.7939 410.356 46.1057C410.345 51.5982 410.345 57.0913 410.357 62.5838C410.357 62.9035 410.268 62.9585 409.971 62.9574C406.325 62.9468 402.678 62.9505 399.032 62.9505C399.032 62.9537 399.032 62.9574 399.032 62.9606V62.9616Z" fill="white"/>
<path d="M401.77 63.71C405.708 63.71 409.646 63.7132 413.583 63.7031C413.868 63.7026 413.957 63.7586 413.947 64.0582C413.922 64.7933 413.931 65.5305 413.943 66.2666C413.946 66.4806 413.904 66.5509 413.665 66.5683C413.271 66.5979 413.017 66.4663 412.805 66.136C412.553 65.7445 412.246 65.3883 411.973 65.0089C411.845 64.8303 411.69 64.7626 411.469 64.7626C404.973 64.7669 398.476 64.7669 391.979 64.7626C391.756 64.7626 391.608 64.8414 391.48 65.0179C391.152 65.4713 390.811 65.9167 390.474 66.3643C390.358 66.5186 389.731 66.6439 389.575 66.5477C389.501 66.5022 389.521 66.4267 389.521 66.3611C389.52 65.5431 389.523 64.7251 389.518 63.9071C389.517 63.7591 389.552 63.6878 389.711 63.7074C389.791 63.7174 389.874 63.7089 389.956 63.7089C393.894 63.7089 397.832 63.7089 401.77 63.7089V63.71Z" fill="white"/>
<path d="M411.069 48.9341C411.069 47.9639 411.076 46.9931 411.065 46.0229C411.062 45.7989 411.114 45.7191 411.353 45.7249C412.019 45.7418 412.686 45.7217 413.352 45.7328C414.747 45.7556 415.724 46.731 415.74 48.1293C415.753 49.3801 415.737 50.6314 415.748 51.8822C415.75 52.111 415.69 52.1802 415.455 52.1781C414.088 52.167 412.72 52.1665 411.352 52.1781C411.111 52.1802 411.062 52.101 411.065 51.879C411.076 50.8972 411.07 49.9148 411.07 48.933L411.069 48.9341Z" fill="white"/>
<path d="M413.397 54.8816C412.719 54.8816 412.042 54.8689 411.365 54.8879C411.109 54.8953 411.054 54.8124 411.064 54.574C411.083 54.1074 411.077 53.6398 411.065 53.1726C411.06 52.984 411.103 52.9111 411.311 52.9121C412.712 52.9211 414.114 52.92 415.515 52.9126C415.705 52.9116 415.75 52.975 415.746 53.1536C415.735 53.644 415.729 54.1349 415.748 54.6248C415.758 54.8605 415.661 54.8874 415.464 54.8848C414.775 54.8747 414.086 54.8811 413.397 54.8811V54.8816Z" fill="white"/>
<path d="M413.404 60.2715C412.715 60.2715 412.026 60.2625 411.337 60.2768C411.115 60.2815 411.059 60.2118 411.065 59.9993C411.08 59.5211 411.075 59.0413 411.067 58.5625C411.064 58.3982 411.082 58.3105 411.287 58.3115C412.7 58.32 414.114 58.3184 415.528 58.3131C415.694 58.3126 415.751 58.3596 415.747 58.5303C415.737 59.0207 415.733 59.5116 415.748 60.002C415.755 60.2202 415.688 60.2805 415.473 60.2768C414.784 60.2636 414.094 60.272 413.405 60.272L413.404 60.2715Z" fill="white"/>
<path d="M413.41 60.9957C414.088 60.9957 414.766 61.0031 415.444 60.9915C415.658 60.9878 415.76 61.0232 415.749 61.2721C415.729 61.7503 415.738 62.2301 415.746 62.7094C415.749 62.8716 415.734 62.9667 415.527 62.9652C414.112 62.9535 412.698 62.9519 411.284 62.9541C411.117 62.9541 411.063 62.906 411.067 62.7363C411.077 62.2338 411.078 61.7313 411.067 61.2287C411.062 61.0422 411.124 60.9893 411.307 60.9915C412.008 61.0004 412.709 60.9952 413.41 60.9952V60.9957Z" fill="white"/>
<path d="M413.412 57.5573C412.724 57.5573 412.035 57.5509 411.347 57.5615C411.147 57.5647 411.056 57.5319 411.065 57.2994C411.085 56.8217 411.078 56.3429 411.067 55.8647C411.064 55.6856 411.113 55.6211 411.301 55.6222C412.701 55.6285 414.1 55.6296 415.5 55.6211C415.712 55.62 415.752 55.7004 415.748 55.8885C415.736 56.3546 415.732 56.8222 415.749 57.2878C415.757 57.5044 415.693 57.5663 415.477 57.562C414.789 57.5488 414.1 57.5573 413.412 57.5573H413.412Z" fill="white"/>
<path d="M399.038 60.9899C396.116 60.9899 393.194 60.9899 390.272 60.9899C389.779 60.9899 389.697 60.9107 389.696 60.4256C389.695 56.3699 389.695 52.3141 389.696 48.2584C389.696 47.7918 389.781 47.7094 390.252 47.7094C396.108 47.7089 401.963 47.7089 407.819 47.7094C408.282 47.7094 408.379 47.8034 408.379 48.2568C408.38 52.3237 408.38 56.391 408.379 60.4578C408.379 60.8858 408.272 60.9894 407.838 60.9894C404.904 60.9905 401.971 60.9894 399.037 60.9894L399.038 60.9899Z" fill="#747474"/>
<path d="M399.039 60.278C396.281 60.278 393.523 60.2743 390.764 60.2838C390.502 60.2848 390.413 60.2346 390.414 59.9477C390.425 56.208 390.424 52.4682 390.416 48.7285C390.416 48.4881 390.468 48.4194 390.717 48.4199C396.269 48.4279 401.819 48.4273 407.37 48.421C407.598 48.421 407.667 48.4765 407.659 48.7079C407.64 49.1983 407.647 49.6897 407.657 50.1801C407.66 50.345 407.619 50.4052 407.444 50.3994C407.047 50.3862 406.649 50.3905 406.252 50.3968C405.011 50.4158 404.082 51.3252 404.062 52.5692C404.044 53.7492 404.047 54.9297 404.061 56.1102C404.077 57.3562 404.988 58.2689 406.232 58.3043C406.629 58.3159 407.027 58.3159 407.424 58.3032C407.611 58.2969 407.662 58.3597 407.657 58.541C407.645 59.0198 407.639 59.4996 407.659 59.9783C407.67 60.2283 407.588 60.2854 407.347 60.2843C404.578 60.2758 401.808 60.279 399.038 60.279L399.039 60.278Z" fill="white"/>
<path d="M407.654 54.3534C407.654 55.3225 407.642 56.2917 407.66 57.2603C407.665 57.5319 407.581 57.598 407.326 57.5832C406.965 57.562 406.602 57.5858 406.24 57.5758C405.394 57.5525 404.805 56.9892 404.79 56.1437C404.77 54.9415 404.77 53.7388 404.792 52.5366C404.807 51.7149 405.398 51.1469 406.22 51.1141C406.582 51.0998 406.945 51.1273 407.306 51.1056C407.573 51.0898 407.667 51.159 407.661 51.447C407.641 52.4156 407.654 53.3848 407.654 54.3539V54.3534Z" fill="white"/>
<path d="M435.059 51.043V58.6836H434.133V54.6875H431.988V53.9258H434.133V51.043H435.059ZM435.352 60.4531V61.2266H428.367V57.9922H429.293V60.4531H435.352ZM430.043 53.1875C430.043 54.5352 431.086 55.8477 432.609 56.3633L432.129 57.1016C430.951 56.6797 430.043 55.8008 429.598 54.7227C429.146 55.9238 428.186 56.8848 426.949 57.3477L426.469 56.5977C428.004 56.0586 429.117 54.6875 429.117 53.1875V52.6484H426.762V51.8867H432.375V52.6484H430.043V53.1875ZM440.32 54.2305C440.309 55.9062 441.516 57.7461 443.027 58.4609L442.5 59.1875C441.328 58.6191 440.338 57.377 439.875 55.9648C439.395 57.5 438.346 58.8477 437.18 59.4453L436.617 58.7188C438.117 57.9922 439.406 56.0117 439.418 54.2305V52.8711H436.992V52.1094H442.664V52.8711H440.32V54.2305ZM444.855 51.0312V55.25H446.602V56.0352H444.855V61.4492H443.941V51.0312H444.855ZM451.23 52.1914V55.7891H448.406V58.1094C449.607 58.1035 450.744 58.0625 452.133 57.8164L452.203 58.5781C450.715 58.8477 449.531 58.8711 448.207 58.8828H447.516V55.0273H450.352V52.9531H447.492V52.1914H451.23ZM456.07 51.0312V61.4492H455.191V51.0312H456.07ZM453.938 51.2891V60.8984H453.07V55.543H451.734V54.793H453.07V51.2891H453.938ZM466.137 51.043V58.6602H465.223V51.043H466.137ZM466.465 60.4531V61.2266H459.41V57.8867H460.324V60.4531H466.465ZM460.512 51.7695C462.07 51.7695 463.242 52.8242 463.242 54.3242C463.242 55.8477 462.07 56.8906 460.512 56.8906C458.953 56.8906 457.781 55.8477 457.781 54.3242C457.781 52.8242 458.953 51.7695 460.512 51.7695ZM460.512 52.5781C459.457 52.5781 458.672 53.3047 458.684 54.3242C458.672 55.3672 459.457 56.082 460.512 56.082C461.543 56.082 462.34 55.3672 462.34 54.3242C462.34 53.3047 461.543 52.5781 460.512 52.5781ZM471.633 54.2305C471.633 56 472.922 57.793 474.457 58.4609L473.941 59.1875C472.723 58.6309 471.668 57.4297 471.188 55.9883C470.695 57.5176 469.646 58.8477 468.457 59.4453L467.906 58.7188C469.395 58.0039 470.695 56.0352 470.707 54.2305V52.8711H468.246V52.1094H474.117V52.8711H471.633V54.2305ZM476.496 51.0312V61.4492H475.57V51.0312H476.496Z" fill="#747474"/>
<path d="M47.9857 84.748C52.4949 84.748 57.0041 84.7505 61.5132 84.7422C61.7657 84.7422 61.8407 84.7922 61.8399 85.0589C61.8282 87.5839 61.8291 90.108 61.8399 92.633C61.8407 92.8897 61.7607 92.938 61.5282 92.9305C60.9882 92.9147 60.4474 92.943 59.9082 92.9189C59.6074 92.9055 59.5099 92.968 59.5107 93.2997C59.5241 97.8505 59.5166 102.401 59.5274 106.951C59.5274 107.249 59.4624 107.322 59.1599 107.321C51.6999 107.311 44.2407 107.311 36.7807 107.321C36.4766 107.321 36.4132 107.246 36.4141 106.951C36.4249 102.452 36.4216 97.953 36.4216 93.4547C36.4216 93.1019 36.2399 92.9255 35.8766 92.9255C35.3574 92.9255 34.8374 92.9205 34.3182 92.9289C34.1632 92.9314 34.1032 92.8972 34.1041 92.7255C34.1099 90.1389 34.1124 87.5514 34.1016 84.9647C34.1007 84.6989 34.2482 84.7489 34.3974 84.7489C38.9274 84.7489 43.4574 84.7489 47.9866 84.7489L47.9857 84.748Z" fill="#0085FF"/>
<path d="M47.9826 92.9255C51.4017 92.9255 54.8201 92.9296 58.2392 92.918C58.5359 92.9171 58.5884 93.0063 58.5884 93.2796C58.5801 97.5405 58.5801 101.8 58.5884 106.061C58.5884 106.316 58.5342 106.385 58.2701 106.385C54.2901 106.375 50.3101 106.375 46.3301 106.385C46.0576 106.385 45.9884 106.324 45.9892 106.047C46.0001 102.514 45.9926 98.9805 46.0026 95.448C46.0026 95.173 45.9367 95.1046 45.6609 95.1063C43.7284 95.1196 41.7951 95.1213 39.8626 95.1046C39.5692 95.1021 39.5317 95.1971 39.5317 95.4546C39.5401 98.9771 39.5342 102.5 39.5426 106.023C39.5426 106.291 39.5001 106.404 39.1967 106.386C38.6892 106.357 38.1784 106.362 37.6701 106.385C37.4101 106.396 37.3476 106.325 37.3484 106.064C37.3576 102.011 37.3551 97.958 37.3551 93.9055C37.3551 93.6771 37.3742 93.4463 37.3501 93.2205C37.3217 92.9588 37.4317 92.9205 37.6642 92.9205C41.1042 92.9271 44.5434 92.9255 47.9834 92.9255H47.9826Z" fill="white"/>
<path d="M47.9655 85.6843C52.1622 85.6843 56.358 85.6876 60.5547 85.6768C60.8489 85.6768 60.9105 85.7609 60.903 86.0351C60.8839 86.7201 60.8897 87.4059 60.9014 88.0918C60.9047 88.2943 60.8747 88.3751 60.6405 88.3751C52.1955 88.3684 43.7514 88.3684 35.3064 88.3751C35.0839 88.3751 35.033 88.3134 35.0372 88.0993C35.0514 87.3934 35.0547 86.6868 35.0355 85.9809C35.0289 85.7284 35.108 85.6793 35.3447 85.6801C39.5514 85.6876 43.758 85.6851 47.9647 85.6851L47.9655 85.6843Z" fill="white"/>
<path d="M48.0006 89.3045C52.1881 89.3045 56.3764 89.3079 60.5639 89.2979C60.8397 89.2979 60.9114 89.3629 60.9031 89.6379C60.8814 90.3229 60.8831 91.0095 60.9031 91.6954C60.9097 91.9462 60.8331 91.997 60.5947 91.997C55.3989 91.9904 50.2031 91.992 45.0072 91.992C41.7856 91.992 38.5647 91.9895 35.3431 91.9979C35.1039 91.9979 35.0289 91.9445 35.0356 91.6954C35.0539 90.9995 35.0531 90.3029 35.0356 89.607C35.0297 89.3612 35.0989 89.3004 35.3431 89.3004C39.5622 89.3079 43.7814 89.3062 47.9997 89.3062L48.0006 89.3045Z" fill="white"/>
<path d="M45.0604 101.206C45.0604 102.837 45.0546 104.468 45.0671 106.099C45.0688 106.34 44.9988 106.387 44.7729 106.384C43.4329 106.373 42.0929 106.372 40.7529 106.386C40.5088 106.388 40.4688 106.316 40.4688 106.092C40.4763 102.84 40.4763 99.5882 40.4688 96.3365C40.4688 96.1032 40.5246 96.0415 40.7604 96.044C42.1004 96.0565 43.4404 96.0565 44.7804 96.044C45.0262 96.0415 45.0671 96.1232 45.0663 96.3457C45.0571 97.9665 45.0613 99.5874 45.0613 101.207L45.0604 101.206Z" fill="white"/>
<path d="M52.2501 101.688C50.9835 101.688 49.716 101.683 48.4493 101.693C48.2326 101.694 48.1468 101.664 48.1485 101.413C48.1601 99.3977 48.1585 97.3835 48.1501 95.3685C48.1501 95.1635 48.2026 95.1094 48.4076 95.1094C50.9835 95.116 53.5585 95.1169 56.1343 95.1094C56.3585 95.1094 56.406 95.1785 56.4051 95.3894C56.3976 97.4044 56.3976 99.4194 56.4051 101.434C56.406 101.642 56.3468 101.694 56.1443 101.693C54.846 101.684 53.5476 101.689 52.2501 101.689V101.688Z" fill="#0085FF"/>
<path d="M52.2779 100.751C51.3121 100.751 50.3463 100.745 49.3813 100.756C49.1621 100.759 49.0796 100.723 49.0821 100.475C49.0963 99.084 49.0938 97.6923 49.0838 96.3006C49.0821 96.0931 49.1413 96.0431 49.3429 96.044C51.2946 96.0515 53.2471 96.0506 55.1988 96.0448C55.3863 96.0448 55.4713 96.0715 55.4696 96.2931C55.4588 97.6948 55.4596 99.0965 55.4696 100.498C55.4713 100.71 55.4063 100.757 55.2063 100.755C54.2304 100.746 53.2546 100.751 52.2788 100.751L52.2779 100.751Z" fill="white"/>
<path d="M81.0586 91.0312V98.7891H80.1328V95.7656H78.3516V94.9922H80.1328V93.7852H78.3516V93.0234H80.1328V91.0312H81.0586ZM78.2695 91.8867V92.6367H77.2031V96.2812C77.6895 96.252 78.1582 96.2168 78.6094 96.1641L78.6562 96.8555C76.6289 97.1719 74.25 97.207 72.5625 97.207L72.4453 96.4219L73.793 96.4102V92.6367H72.7383V91.8867H78.2695ZM81.3398 100.453V101.227H74.3438V98.1445H75.2695V100.453H81.3398ZM74.6836 96.3867C75.2168 96.3809 75.7676 96.3633 76.3125 96.3398V92.6367H74.6836V96.3867ZM86.2031 91.793C87.8438 91.793 89.0039 92.7891 89.0039 94.2422C89.0039 95.6953 87.8438 96.6914 86.2031 96.6914C84.5625 96.6914 83.3789 95.6953 83.3906 94.2422C83.3789 92.7891 84.5625 91.793 86.2031 91.793ZM86.2031 92.6016C85.0898 92.6016 84.2812 93.2695 84.293 94.2422C84.2812 95.2148 85.0898 95.8828 86.2031 95.8828C87.3047 95.8828 88.1016 95.2148 88.1016 94.2422C88.1016 93.2695 87.3047 92.6016 86.2031 92.6016ZM91.3359 91.0312V101.473H90.4219V91.0312H91.3359ZM82.8516 98.3906C84.7734 98.3906 87.4219 98.3789 89.7305 98.0391L89.8008 98.7188C87.4219 99.1641 84.8555 99.1758 82.9805 99.1758L82.8516 98.3906ZM101.801 91.0312V97.1367H100.875V94.418H98.7656V93.6445H100.875V91.0312H101.801ZM101.801 97.6523V101.309H94.9922V97.6523H101.801ZM95.9062 98.3906V100.559H100.898V98.3906H95.9062ZM96.7852 92.8828C96.7852 94.2305 97.8281 95.5312 99.3516 96.0703L98.8711 96.7969C97.6934 96.375 96.7852 95.4961 96.3398 94.418C95.8887 95.6191 94.9277 96.5801 93.6914 97.0312L93.2109 96.3047C94.7461 95.7539 95.8594 94.3711 95.8594 92.8828V92.4727H93.5039V91.7109H99.1172V92.4727H96.7852V92.8828Z" fill="#0085FF"/>
<g clip-path="url(#clip1_133_2249)">
<path d="M209.007 107.255C209.213 106.522 209.735 106.028 210.285 105.548C210.864 105.042 211.424 104.514 211.99 103.992C213.713 102.404 214.603 100.435 214.673 98.0995C214.701 97.1995 214.475 96.3337 214.298 95.4578C213.427 91.1495 214.548 87.4203 217.686 84.337C219.822 82.2387 222.398 80.917 225.342 80.3628C229.028 79.6695 232.534 80.122 235.701 82.2503C238.471 84.1128 240.068 86.7662 240.746 90.002C240.84 90.4512 240.839 90.917 240.993 91.3545V91.5412C240.954 91.5828 240.954 91.6245 240.993 91.6662V94.0978C240.936 94.9237 240.809 95.7362 240.597 96.5387C240.403 97.272 240.168 97.9903 239.863 98.6837C239.753 98.937 239.766 99.1245 239.952 99.3287C240.393 99.8128 240.666 100.39 240.863 101.01C240.949 101.28 240.928 101.56 240.993 101.83V102.765C240.928 102.869 240.976 102.984 240.961 103.093C240.952 103.977 240.572 104.723 240.049 105.398C238.43 107.486 235.493 107.906 233.354 106.353C233.067 106.144 232.841 106.108 232.508 106.244C230.915 106.893 229.248 107.164 227.531 107.08C226.71 107.04 225.898 106.899 225.098 106.699C222.379 106.018 219.947 106.605 217.797 108.381C217.194 108.879 216.707 109.495 216.176 110.065C215.815 110.452 215.452 110.839 215.103 111.237C214.726 111.667 214.278 111.956 213.692 111.995H212.942C212.423 111.959 212.039 111.685 211.688 111.325C211.028 110.647 210.36 109.976 209.678 109.32C209.313 108.97 209.056 108.577 209.006 108.066V107.255L209.007 107.255Z" fill="#747474"/>
<path d="M209.008 108.065C209.192 108.756 209.669 109.24 210.165 109.715C210.572 110.102 210.973 110.496 211.356 110.905C211.808 111.386 212.29 111.81 212.943 111.994C211.699 111.994 210.454 111.99 209.209 111.999C209.037 112 209.001 111.965 209.002 111.792C209.011 110.55 209.007 109.308 209.007 108.065H209.008Z" fill="white"/>
<path d="M240.993 103.077H240.965L240.938 103.085C240.918 102.971 240.899 102.858 240.993 102.765V103.076V103.077Z" fill="#747474"/>
<path d="M240.994 91.667C240.917 91.6253 240.9 91.5837 240.994 91.542V91.667Z" fill="#747474"/>
<path d="M232.238 105.127C231.26 105.541 230.253 105.757 229.218 105.893C228.683 105.964 228.33 105.809 227.947 105.424C223.737 101.191 219.505 96.98 215.275 92.7667C215.128 92.62 215.083 92.4808 215.098 92.2758C215.37 88.4058 217.308 85.5442 220.489 83.4558C222.994 81.8125 225.766 81.0367 228.759 81.1458C232.061 81.2658 234.928 82.415 237.147 84.9342C238.675 86.6692 239.492 88.735 239.795 91.005C240.122 93.4542 239.777 95.8242 238.867 98.1183C238.789 98.3133 238.733 98.3575 238.524 98.2425C236.577 97.17 234.207 97.5417 232.693 99.1425C231.208 100.713 230.982 103.078 232.138 104.958C232.168 105.009 232.199 105.06 232.239 105.128L232.238 105.127Z" fill="white"/>
<path d="M220.43 103.085C220.42 103.59 220.215 103.98 219.892 104.329C218.454 105.886 217.022 107.449 215.588 109.01C215.124 109.515 214.665 110.024 214.195 110.523C213.69 111.061 213.05 111.072 212.527 110.553C211.825 109.859 211.125 109.163 210.431 108.461C209.94 107.965 209.945 107.312 210.459 106.84C212.571 104.9 214.686 102.963 216.81 101.035C217.487 100.419 218.394 100.451 219.056 101.085C219.364 101.38 219.66 101.686 219.961 101.988C220.27 102.298 220.41 102.678 220.431 103.084L220.43 103.085Z" fill="white"/>
<path d="M232.466 102.399C232.472 100.346 234.142 98.6956 236.212 98.6973C238.261 98.6989 239.942 100.389 239.929 102.434C239.916 104.49 238.237 106.147 236.178 106.136C234.114 106.125 232.459 104.459 232.465 102.399H232.466Z" fill="white"/>
<path d="M215.297 100.961C216.059 98.6873 215.712 96.464 215.113 94.2148C219.031 98.1257 222.895 101.982 226.747 105.827C226.292 105.797 225.809 105.684 225.329 105.567C223.589 105.146 221.867 105.193 220.161 105.742C220.123 105.755 220.081 105.754 220.009 105.763C220.27 105.482 220.514 105.228 220.748 104.965C221.767 103.82 221.742 102.312 220.682 101.206C220.387 100.898 220.086 100.596 219.775 100.303C218.72 99.3073 217.235 99.2707 216.127 100.212C215.842 100.452 215.573 100.711 215.297 100.961H215.297Z" fill="white"/>
</g>
<path d="M254.707 91.7461V92.5078H250.828V93.8672H254.508V94.5938H250.828V96.0352C252.855 96.0352 254.021 95.9824 255.387 95.7305L255.492 96.4922C254.051 96.7383 252.855 96.7852 250.699 96.7734H249.914V91.7461H254.707ZM257.566 91.0312V93.8086H259.137V94.5938H257.566V97.3477H256.652V91.0312H257.566ZM257.566 97.8633V101.449H256.652V98.6133H250.746V97.8633H257.566ZM268.031 91.7109V92.625C268.031 93.6152 268.031 94.6875 267.738 96.1875H269.285V96.9492H264.984V101.473H264.059V96.9492H259.793V96.1875H266.801C267.117 94.6875 267.117 93.5918 267.117 92.625V92.4727H260.988V91.7109H268.031ZM273.691 93.0117C273.691 94.3711 274.711 95.5898 276.246 96.0938L275.812 96.8203C274.611 96.4277 273.703 95.5957 273.258 94.5469C272.807 95.7422 271.846 96.6738 270.598 97.125L270.129 96.3867C271.688 95.8594 272.777 94.5117 272.789 93.0117V92.5664H270.41V91.8047H276.035V92.5664H273.691V93.0117ZM278.309 91.0312V93.6914H279.879V94.4648H278.309V97.3242H277.395V91.0312H278.309ZM274.969 97.6055C277.113 97.6055 278.402 98.3086 278.402 99.5039C278.402 100.723 277.113 101.426 274.969 101.426C272.824 101.426 271.512 100.723 271.512 99.5039C271.512 98.3086 272.824 97.6055 274.969 97.6055ZM274.969 98.3438C273.398 98.3438 272.426 98.7773 272.438 99.5039C272.426 100.254 273.398 100.688 274.969 100.688C276.551 100.688 277.512 100.254 277.512 99.5039C277.512 98.7773 276.551 98.3438 274.969 98.3438Z" fill="#747474"/>
<path d="M391.886 97.7495C391.886 93.6553 391.883 89.5611 391.893 85.467C391.893 85.1686 391.845 85.0611 391.512 85.0686C390.4 85.0936 389.289 85.0795 388.176 85.0778C387.656 85.0778 387.547 84.9703 387.545 84.4628C387.544 83.9745 387.54 83.4861 387.547 82.9978C387.552 82.6328 387.694 82.4953 388.064 82.4945C389.249 82.492 390.434 82.4878 391.619 82.4986C391.84 82.5011 391.91 82.4361 391.89 82.2203C391.873 82.0353 391.878 81.8461 391.89 81.6595C391.909 81.3578 392.065 81.2111 392.366 81.1945C392.439 81.1903 392.512 81.1936 392.584 81.1936C398.84 81.1936 405.096 81.1936 411.351 81.1936C411.944 81.1936 412.05 81.3028 412.05 81.9078C412.05 82.2978 412.243 82.4928 412.629 82.4928C413.689 82.4928 414.749 82.4928 415.809 82.4928C416.259 82.4928 416.388 82.617 416.39 83.0586C416.394 83.537 416.393 84.0145 416.39 84.4928C416.388 84.9561 416.267 85.0761 415.791 85.077C414.659 85.0786 413.525 85.0853 412.393 85.072C412.134 85.0686 412.042 85.1111 412.042 85.4036C412.053 90.942 412.049 96.4811 412.049 102.019C412.049 104.699 412.049 107.38 412.049 110.06C412.049 110.623 411.931 110.744 411.382 110.744C405.105 110.744 398.829 110.744 392.553 110.744C392.004 110.744 391.886 110.624 391.885 110.06C391.885 105.956 391.885 101.852 391.885 97.7486L391.886 97.7495Z" fill="#747474"/>
<path d="M411.178 92.0337C411.178 95.2346 411.174 98.4346 411.185 101.635C411.186 101.931 411.099 101.988 410.822 101.988C404.919 101.98 399.017 101.98 393.114 101.988C392.838 101.988 392.751 101.93 392.752 101.635C392.762 96.1071 392.759 90.5787 392.759 85.0504C392.759 84.1479 392.765 83.2454 392.754 82.3437C392.752 82.1362 392.791 82.0604 393.021 82.0612C398.986 82.0679 404.95 82.0687 410.915 82.0596C411.19 82.0596 411.179 82.1837 411.179 82.3754C411.176 85.5954 411.177 88.8146 411.177 92.0346L411.178 92.0337Z" fill="white"/>
<path d="M401.953 109.871C398.991 109.871 396.03 109.869 393.068 109.876C392.837 109.876 392.748 109.838 392.752 109.578C392.77 108.58 392.764 107.583 392.755 106.585C392.753 106.381 392.788 106.299 393.02 106.299C398.985 106.305 404.95 106.305 410.915 106.299C411.148 106.299 411.184 106.38 411.181 106.585C411.172 107.583 411.167 108.58 411.184 109.578C411.188 109.838 411.099 109.877 410.869 109.876C407.897 109.869 404.925 109.871 401.953 109.871Z" fill="white"/>
<path d="M401.982 102.855C404.933 102.855 407.884 102.859 410.836 102.85C411.097 102.85 411.197 102.893 411.186 103.185C411.16 103.838 411.171 104.494 411.182 105.148C411.185 105.35 411.152 105.437 410.916 105.437C404.952 105.43 398.987 105.43 393.022 105.437C392.791 105.437 392.751 105.355 392.755 105.15C392.767 104.485 392.772 103.82 392.752 103.155C392.745 102.899 392.83 102.85 393.067 102.85C396.039 102.858 399.011 102.855 401.982 102.855Z" fill="white"/>
<path d="M390.152 84.2046C389.643 84.2046 389.135 84.1979 388.627 84.2079C388.463 84.2113 388.42 84.1629 388.416 83.9988C388.402 83.3646 388.395 83.3646 389.036 83.3646C389.908 83.3646 390.779 83.3704 391.651 83.3604C391.84 83.3579 391.895 83.4038 391.894 83.5988C391.891 84.2038 391.901 84.2038 391.304 84.2038C390.92 84.2038 390.537 84.2038 390.153 84.2038L390.152 84.2046Z" fill="white"/>
<path d="M413.785 83.3648C414.293 83.3648 414.802 83.3706 415.31 83.3614C415.467 83.3589 415.52 83.3964 415.523 83.5648C415.537 84.2039 415.544 84.2039 414.905 84.2039C414.033 84.2039 413.162 84.1981 412.29 84.2081C412.102 84.2106 412.044 84.1664 412.045 83.9698C412.047 83.3648 412.037 83.3648 412.632 83.3648C413.017 83.3648 413.4 83.3648 413.784 83.3648H413.785Z" fill="white"/>
<path d="M431.168 91.2539C433.43 91.2539 434.848 91.9922 434.848 93.2461C434.848 93.9551 434.385 94.5059 433.559 94.8398V96.3516H435.914V97.1016H426.422V96.3516H428.777V94.8398C427.945 94.5059 427.477 93.9609 427.477 93.2461C427.477 91.9922 428.906 91.2539 431.168 91.2539ZM431.168 91.9922C429.48 91.9922 428.414 92.4492 428.426 93.2461C428.414 94.0312 429.48 94.5 431.168 94.5C432.832 94.5 433.91 94.0312 433.91 93.2461C433.91 92.4492 432.832 91.9922 431.168 91.9922ZM434.742 98.0859V101.449H433.816V98.8359H427.477V98.0859H434.742ZM429.691 96.3516H432.645V95.0977C432.205 95.1855 431.713 95.2266 431.168 95.2266C430.623 95.2266 430.131 95.1855 429.691 95.0977V96.3516ZM445.383 91.0312V96.4336H444.48V91.0312H445.383ZM445.395 96.9609V99.457H439.547V100.582H445.77V101.332H438.645V98.7422H444.48V97.6992H438.621V96.9609H445.395ZM440.484 92.1328C440.473 93.6094 441.598 94.9102 443.145 95.4141L442.688 96.1289C441.469 95.7129 440.496 94.8398 440.027 93.7148C439.559 94.9277 438.58 95.8828 437.344 96.3281L436.863 95.6016C438.434 95.0508 439.547 93.668 439.547 92.1328V91.3359H440.484V92.1328ZM456.656 96.1875V96.9492H447.164V96.1875H449.52V94.7227C448.688 94.4004 448.219 93.8672 448.219 93.1641C448.219 91.9336 449.625 91.2305 451.91 91.2305C454.172 91.2305 455.59 91.9336 455.59 93.1641C455.59 93.8613 455.127 94.3945 454.301 94.7109V96.1875H456.656ZM451.91 97.7461C454.148 97.7461 455.484 98.3906 455.496 99.5859C455.484 100.77 454.148 101.426 451.91 101.426C449.648 101.426 448.312 100.77 448.312 99.5859C448.312 98.3906 449.648 97.7461 451.91 97.7461ZM451.91 98.4492C450.234 98.4609 449.238 98.8711 449.25 99.5859C449.238 100.289 450.234 100.711 451.91 100.711C453.562 100.711 454.57 100.289 454.57 99.5859C454.57 98.8711 453.562 98.4609 451.91 98.4492ZM451.91 91.957C450.211 91.957 449.156 92.4141 449.168 93.1641C449.156 93.9258 450.211 94.3711 451.91 94.3711C453.598 94.3711 454.652 93.9258 454.652 93.1641C454.652 92.4141 453.598 91.957 451.91 91.957ZM450.434 96.1875H453.387V94.9688C452.947 95.0449 452.455 95.0859 451.91 95.0859C451.365 95.0859 450.873 95.0449 450.434 94.9688V96.1875ZM467.027 96.0703V96.832H462.727V98.0625H465.867V101.309H458.695V98.0625H461.824V96.832H457.535V96.0703H467.027ZM466.125 91.3711V92.1328H464.52V94.3242H466.09V95.0859H458.461V94.3242H460.031V92.1328H458.426V91.3711H466.125ZM459.609 98.7891V100.559H464.965V98.7891H459.609ZM460.945 94.3242H463.605V92.1328H460.945V94.3242Z" fill="#747474"/>
<path d="M63.994 132.29C63.7908 132.727 63.551 133.124 63.0682 133.313C62.9315 133.366 62.9986 133.517 62.9979 133.622C62.994 135.804 62.9955 137.986 62.9947 140.168C62.9947 140.334 63.0002 140.498 62.9494 140.662C62.8174 141.088 62.469 141.38 62.0494 141.4C61.5838 141.423 61.1885 141.205 61.0361 140.781C60.7736 140.049 60.6354 139.281 60.4432 138.529C60.0994 137.184 59.7697 135.834 59.433 134.488C59.4158 134.418 59.3869 134.352 59.3611 134.276C58.4815 134.672 57.6416 135.121 56.801 135.568C55.2541 136.389 53.6971 137.187 52.0236 137.728C51.8729 137.777 51.7885 137.876 51.715 138.008C51.3025 138.751 50.8729 139.484 50.4713 140.233C50.0346 141.047 49.3744 141.446 48.4479 141.411C48.1158 141.398 47.783 141.409 47.4502 141.409C46.6518 141.407 46.058 141.048 45.6658 140.361C45.219 139.578 44.783 138.789 44.34 138.003C44.2807 137.897 44.2275 137.796 44.0877 137.751C41.919 137.041 39.9424 135.923 37.9346 134.87C37.533 134.66 37.1197 134.473 36.6885 134.265C36.433 135.282 36.1838 136.276 35.9346 137.27C35.6674 138.336 35.401 139.402 35.1322 140.466C34.9627 141.136 34.5361 141.468 33.9432 141.398C33.3979 141.334 33.0666 140.88 33.0666 140.195C33.0666 138.002 33.0643 135.809 33.0705 133.617C33.0705 133.433 33.0361 133.328 32.8525 133.234C32.251 132.925 31.958 132.268 32.1065 131.639C32.2627 130.976 32.8025 130.523 33.4815 130.487C33.6057 130.48 33.7307 130.483 33.8557 130.483C43.2799 130.483 52.7041 130.489 62.1283 130.473C63.0502 130.471 63.6947 130.765 63.994 131.667V132.291V132.29Z" fill="#747474"/>
<path d="M58.8445 133.411C56.7452 134.458 54.7601 135.708 52.5304 136.562C53.0984 135.553 53.646 134.591 54.1812 133.621C54.2679 133.464 54.3624 133.407 54.5406 133.41C55.1531 133.421 55.7663 133.416 56.3796 133.414C56.7702 133.413 56.9952 133.24 56.9952 132.948C56.9952 132.657 56.7687 132.48 56.3796 132.48C53.1171 132.479 49.8546 132.48 46.5929 132.48C42.3226 132.48 38.0531 132.48 33.7827 132.48C33.2687 132.48 33.0163 132.312 33.0062 131.963C32.9952 131.604 33.2609 131.418 33.7859 131.418C43.282 131.418 52.7781 131.418 62.2742 131.418C62.7992 131.418 63.0648 131.604 63.0538 131.964C63.0437 132.313 62.7913 132.48 62.2773 132.48C61.1031 132.48 59.9296 132.48 58.7554 132.48C58.6624 132.48 58.5663 132.473 58.4757 132.491C58.2202 132.541 58.0617 132.694 58.071 132.963C58.0796 133.229 58.2413 133.378 58.5023 133.409C58.6148 133.423 58.7304 133.412 58.8445 133.412V133.411Z" fill="white"/>
<path d="M42.8359 133.423H53.218C53.0984 133.64 52.993 133.838 52.8836 134.032C52.3664 134.953 51.8438 135.871 51.3344 136.796C51.2461 136.956 51.132 137.034 50.9625 137.079C49.0047 137.606 47.0492 137.602 45.0937 137.073C44.9812 137.042 44.8609 137.032 44.7859 136.897C44.1484 135.749 43.5023 134.606 42.8359 133.424V133.423Z" fill="white"/>
<path d="M50.5816 138.13C50.2035 138.794 49.8707 139.4 49.516 139.994C49.3293 140.307 49.0316 140.468 48.6605 140.469C48.2254 140.471 47.7895 140.469 47.3543 140.465C47.0566 140.462 46.798 140.342 46.6309 140.103C46.2051 139.496 45.8918 138.822 45.4824 138.131C47.1988 138.497 48.8535 138.5 50.5816 138.131V138.13Z" fill="white"/>
<path d="M37.2246 133.414C38.6691 133.414 40.1137 133.414 41.5582 133.412C41.677 133.412 41.7684 133.421 41.8379 133.546C42.3762 134.516 42.9223 135.482 43.4645 136.449C43.4723 136.463 43.4637 136.486 43.4613 136.532C41.2777 135.693 39.3051 134.451 37.2254 133.414H37.2246Z" fill="white"/>
<path d="M35.9351 133.414C35.3601 135.719 34.7944 137.99 34.2241 140.258C34.2046 140.335 34.2194 140.477 34.0788 140.453C33.9671 140.434 34.0038 140.32 34.0038 140.244C34.0023 138.031 34.0038 135.819 33.9999 133.607C33.9999 133.465 34.028 133.407 34.1859 133.409C34.7562 133.419 35.3273 133.413 35.9351 133.413V133.414Z" fill="white"/>
<path d="M60.127 133.415C60.7387 133.415 61.3285 133.417 61.9191 133.413C62.1496 133.412 62.0566 133.583 62.0566 133.68C62.0621 135.228 62.0605 136.776 62.0605 138.322C62.0605 138.966 62.0613 139.61 62.059 140.255C62.059 140.33 62.0949 140.441 61.9746 140.455C61.8535 140.469 61.8621 140.349 61.8441 140.279C61.2715 138 60.7027 135.719 60.127 133.414V133.415Z" fill="white"/>
<path d="M80.8594 136.668V137.418H73.6523V131.934H80.7422V132.707H74.5898V134.254H80.5195V134.992H74.5898V136.668H80.8594ZM81.9609 139.328V140.09H72.4219V139.328H81.9609ZM91.6406 131.043V137.254H90.7617V134.453H89.2969V137.113H88.4414V131.242H89.2969V133.691H90.7617V131.043H91.6406ZM91.6406 137.746V141.309H84.7617V137.746H91.6406ZM85.6641 138.496V140.559H90.7383V138.496H85.6641ZM87.1992 131.723V134.559H84.1641V136.059C85.5352 136.053 86.584 135.988 87.8203 135.742L87.9258 136.492C86.5781 136.75 85.4648 136.785 83.9531 136.785H83.2734V133.844H86.3203V132.473H83.25V131.723H87.1992ZM99.0352 131.688V132.438H97.9688V135.285C98.4902 135.262 99 135.221 99.4805 135.168L99.5273 135.848C97.4883 136.141 95.0977 136.199 93.293 136.188L93.1875 135.414L94.5352 135.402V132.438H93.4805V131.688H99.0352ZM101.801 131.031V136.586H100.875V134.148H98.9766V133.41H100.875V131.031H101.801ZM101.801 137.055V139.492H95.9766V140.594H102.188V141.332H95.0742V138.789H100.887V137.781H95.0508V137.055H101.801ZM95.4258 135.391C95.9648 135.379 96.5156 135.361 97.0664 135.332V132.438H95.4258V135.391ZM112.125 131.043V138.707H111.223V131.043H112.125ZM112.43 140.453V141.227H105.293V138.109H106.219V140.453H112.43ZM108.82 131.781V134.793H104.977V136.457C106.91 136.457 108.281 136.398 109.934 136.105L110.027 136.867C108.328 137.16 106.922 137.219 104.93 137.23H104.086V134.066H107.906V132.531H104.062V131.781H108.82Z" fill="#747474"/>
<g clip-path="url(#clip2_133_2249)">
<path d="M209.006 127.114C209.172 126.831 209.424 126.762 209.739 126.762C214.084 126.769 218.427 126.767 222.772 126.765C222.891 126.765 223.016 126.794 223.232 126.695C223.107 126.607 223.005 126.555 222.928 126.478C221.309 124.864 219.692 123.246 218.076 121.629C218.018 121.571 217.955 121.514 217.903 121.451C217.721 121.232 217.732 120.936 217.923 120.746C218.115 120.556 218.404 120.549 218.628 120.735C218.691 120.787 218.748 120.849 218.807 120.908C220.689 122.789 222.57 124.67 224.451 126.551C224.769 126.869 225.178 126.865 225.501 126.541C227.375 124.668 229.249 122.793 231.122 120.92C231.203 120.839 231.28 120.751 231.372 120.686C231.598 120.529 231.829 120.542 232.024 120.733C232.219 120.923 232.241 121.154 232.089 121.384C232.027 121.478 231.94 121.556 231.859 121.636C230.243 123.254 228.626 124.871 227.008 126.486C226.936 126.558 226.846 126.611 226.727 126.703C226.911 126.791 227.034 126.766 227.15 126.766C231.473 126.767 235.797 126.767 240.12 126.767C240.224 126.767 240.329 126.762 240.432 126.773C240.746 126.804 240.92 126.986 240.933 127.301C240.942 127.498 240.935 127.696 240.935 127.893C240.935 133.785 240.935 139.678 240.935 145.571C240.935 146.199 240.802 146.331 240.166 146.331C235.729 146.331 231.291 146.335 226.853 146.324C226.576 146.324 226.5 146.391 226.514 146.665C226.539 147.132 226.535 147.601 226.515 148.068C226.504 148.318 226.558 148.403 226.83 148.397C227.702 148.377 228.575 148.397 229.448 148.386C229.778 148.382 229.994 148.505 230.138 148.806C230.432 149.424 230.749 150.031 231.049 150.646C231.282 151.122 231.066 151.489 230.541 151.489C226.831 151.493 223.121 151.493 219.411 151.489C218.883 151.489 218.662 151.124 218.894 150.651C219.194 150.037 219.512 149.43 219.805 148.812C219.947 148.511 220.159 148.382 220.49 148.386C221.384 148.395 222.278 148.382 223.171 148.394C223.378 148.397 223.433 148.336 223.427 148.135C223.413 147.657 223.404 147.177 223.429 146.701C223.445 146.408 223.374 146.322 223.064 146.323C218.627 146.335 214.188 146.329 209.751 146.337C209.439 146.337 209.185 146.279 209.009 146.008V127.114H209.006Z" fill="#747474"/>
<path d="M224.937 145.312C220.084 145.312 215.231 145.31 210.378 145.318C210.113 145.318 210.029 145.267 210.029 144.982C210.039 139.36 210.038 133.738 210.03 128.116C210.03 127.859 210.086 127.794 210.349 127.794C220.096 127.802 229.844 127.802 239.591 127.794C239.857 127.794 239.908 127.867 239.907 128.119C239.899 133.731 239.898 139.342 239.909 144.953C239.909 145.268 239.813 145.319 239.525 145.318C234.662 145.309 229.799 145.312 224.935 145.312H224.937Z" fill="white"/>
<path d="M220.15 150.434C220.306 150.125 220.457 149.844 220.588 149.554C220.645 149.427 220.734 149.43 220.84 149.43C223.592 149.43 226.343 149.432 229.095 149.428C229.239 149.428 229.321 149.471 229.381 149.604C229.503 149.875 229.641 150.14 229.785 150.434H220.15Z" fill="white"/>
<path d="M224.459 147.349C224.459 147.07 224.464 146.791 224.457 146.511C224.454 146.381 224.496 146.314 224.634 146.332C224.644 146.333 224.654 146.332 224.665 146.332C225.207 146.306 225.479 146.567 225.479 147.114C225.479 147.476 225.472 147.838 225.482 148.201C225.486 148.35 225.436 148.387 225.289 148.394C224.459 148.433 224.459 148.436 224.459 147.598C224.459 147.515 224.459 147.432 224.459 147.349Z" fill="white"/>
<path d="M234.01 143.254C234.738 143.254 235.464 143.252 236.191 143.254C236.579 143.256 236.807 143.442 236.812 143.753C236.817 144.067 236.586 144.269 236.207 144.27C234.712 144.272 233.217 144.269 231.722 144.272C231.434 144.273 231.236 144.154 231.165 143.877C231.103 143.642 231.201 143.453 231.406 143.32C231.519 143.248 231.643 143.254 231.767 143.254C232.515 143.254 233.263 143.254 234.01 143.254L234.01 143.254Z" fill="#747474"/>
<path d="M238.093 143.763C237.583 143.763 237.327 143.591 237.326 143.248C237.326 142.903 237.58 142.731 238.092 142.731C238.175 142.731 238.258 142.727 238.34 142.734C238.669 142.76 238.881 142.973 238.871 143.263C238.861 143.553 238.641 143.75 238.31 143.763C238.237 143.767 238.165 143.763 238.093 143.763Z" fill="#747474"/>
</g>
<path d="M249.469 132.953V132.016H255.867V132.953H253.207V140.5H252.141V132.953H249.469ZM257.66 132.016L260.156 139.129H260.25L262.758 132.016H263.871L260.766 140.5H259.652L256.547 132.016H257.66Z" fill="#747474"/>
<defs>
<clipPath id="clip0_133_2249">
<rect width="32" height="32" fill="white" transform="translate(32 40)"/>
</clipPath>
<clipPath id="clip1_133_2249">
<rect width="32" height="32" fill="white" transform="translate(209 80)"/>
</clipPath>
<clipPath id="clip2_133_2249">
<rect width="32" height="32" fill="white" transform="translate(209 120)"/>
</clipPath>
</defs>
</svg>
