<svg width="32" height="32" viewBox="0 0 32 32" fill="none" xmlns="http://www.w3.org/2000/svg">
<rect width="32" height="32" rx="16" fill="#F5F5F5"/>
<path fill-rule="evenodd" clip-rule="evenodd" d="M10.4539 17.0105C10.3523 17.001 10.2099 17 9.92963 17H7V15H9.92963C9.94064 15 9.95165 15 9.96268 15C10.1959 15 10.4336 14.9999 10.6396 15.0191C10.8758 15.0411 11.14 15.0929 11.4085 15.2367C11.6771 15.3804 11.8667 15.5714 12.0161 15.7558C12.1463 15.9165 12.2781 16.1143 12.4075 16.3084C12.4136 16.3176 12.4197 16.3268 12.4258 16.3359L13.2383 17.5547C13.3938 17.7879 13.4736 17.9058 13.5378 17.9851C13.5389 17.9865 13.54 17.9878 13.541 17.9891C13.5427 17.9892 13.5444 17.9894 13.5461 17.9895C13.6477 17.999 13.7901 18 14.0704 18H17.9296C18.2099 18 18.3523 17.999 18.4539 17.9895C18.4556 17.9894 18.4573 17.9892 18.459 17.9891C18.46 17.9878 18.4611 17.9865 18.4622 17.9851C18.5264 17.9058 18.6062 17.7879 18.7617 17.5547L19.5742 16.3359C19.5803 16.3268 19.5864 16.3176 19.5925 16.3084C19.7219 16.1144 19.8537 15.9165 19.9839 15.7558C20.1333 15.5714 20.3229 15.3804 20.5915 15.2367C20.86 15.0929 21.1242 15.0411 21.3604 15.0191C21.5664 14.9999 21.8041 15 22.0373 15L25 15V17H22.0704C21.7901 17 21.6477 17.001 21.5461 17.0105C21.5444 17.0106 21.5427 17.0108 21.541 17.011C21.54 17.0122 21.5389 17.0136 21.5378 17.0149C21.4736 17.0942 21.3938 17.2121 21.2383 17.4453L20.4075 18.6916C20.2781 18.8857 20.1463 19.0835 20.0161 19.2442C19.8667 19.4286 19.6771 19.6196 19.4085 19.7634C19.14 19.9071 18.8758 19.9589 18.6396 19.9809C18.4336 20.0001 18.1959 20.0001 17.9627 20L14.0704 20C14.0594 20 14.0483 20 14.0373 20C13.8041 20.0001 13.5664 20.0001 13.3604 19.9809C13.1242 19.9589 12.86 19.9071 12.5915 19.7634C12.3229 19.6196 12.1333 19.4286 11.9839 19.2442C11.8537 19.0835 11.7219 18.8857 11.5925 18.6916C11.5864 18.6824 11.5803 18.6733 11.5742 18.6641L10.7617 17.4453C10.6062 17.2121 10.5264 17.0942 10.4622 17.0149C10.4611 17.0136 10.46 17.0122 10.459 17.011C10.4573 17.0108 10.4556 17.0106 10.4539 17.0105Z" fill="#1D1D1D"/>
<path fill-rule="evenodd" clip-rule="evenodd" d="M11.8477 11.2404L13.1492 12.759L14.9984 11.1739L14.9984 15.9997L16.9984 15.9997L16.9984 11.1739L18.8477 12.759L20.1492 11.2404L15.9984 7.68262L11.8477 11.2404Z" fill="#1D1D1D"/>
<path fill-rule="evenodd" clip-rule="evenodd" d="M9.70711 12.2929C10.0976 12.6834 10.0976 13.3166 9.70711 13.7071L8 15.4142V21C8 21.5523 8.44772 22 9 22H23C23.5523 22 24 21.5523 24 21V15.4142L22.2929 13.7071C21.9024 13.3166 21.9024 12.6834 22.2929 12.2929C22.6834 11.9024 23.3166 11.9024 23.7071 12.2929L25.4142 14C25.7893 14.3751 26 14.8838 26 15.4142V21C26 22.6569 24.6569 24 23 24H9C7.34315 24 6 22.6569 6 21V15.4142C6 14.8838 6.21071 14.3751 6.58579 14L8.29289 12.2929C8.68342 11.9024 9.31658 11.9024 9.70711 12.2929Z" fill="#1D1D1D"/>
</svg>
